<svg width="1280" height="270" viewBox="0 0 1280 270" fill="none" xmlns="http://www.w3.org/2000/svg">
<g filter="url(#filter0_d_397_10)">
<path opacity="0.0416667" d="M929.05 -47.8513C877.441 -106.612 727.821 -117.036 659.463 -114.902C550.941 -105.909 345.987 -69.4331 394.343 4.51937C454.787 96.96 524.582 65.405 695.903 126.726C867.223 188.047 945.639 207.777 1153.08 175.316C1319.04 149.347 1201.17 77.8935 1121.5 45.4129C1078.85 38.8086 980.659 10.9098 929.05 -47.8513Z" stroke="#0959A0" stroke-opacity="0.5"/>
<path opacity="0.0833333" d="M912.692 -34.6338C877.432 -94.5975 731.247 -109.116 662.562 -108.88C551.981 -102.919 337.781 -72.246 365.624 2.76128C400.429 96.5204 478.632 67.0143 632.445 132.836C786.257 198.658 858.952 220.48 1074.53 193.875C1246.99 172.591 1149.22 98.1525 1078.77 63.5937C1038.1 55.8361 947.953 25.3299 912.692 -34.6338Z" stroke="#0959A0" stroke-opacity="0.5"/>
<path opacity="0.125" d="M895.997 -22.178C877.353 -82.8879 735.715 -101.391 667.227 -103.053C555.429 -100.171 333.612 -75.5344 340.732 -0.0431169C349.631 94.3211 435.648 67.0883 570.782 136.91C705.916 206.732 772.335 230.48 994.407 209.934C1172.06 193.497 1095.12 116.639 1034.44 80.2652C996.062 71.4133 914.64 38.532 895.997 -22.178Z" stroke="#0959A0" stroke-opacity="0.5"/>
<path opacity="0.166667" d="M879.18 -10.491C877.295 -71.4851 741.282 -93.8316 673.511 -97.3806C561.346 -97.599 333.601 -79.1856 319.943 -3.7848C302.87 90.4662 396.045 65.7141 511.472 139.005C626.9 212.295 686.538 237.788 913.412 223.457C1094.91 211.992 1039.39 133.301 988.939 95.3882C953.138 85.5094 881.064 50.5031 879.18 -10.491Z" stroke="#0959A0" stroke-opacity="0.5"/>
<path opacity="0.208333" d="M862.449 0.427311C877.337 -60.3868 747.985 -86.4069 681.447 -91.8152C569.769 -95.1324 337.83 -83.0826 303.497 -8.34622C260.582 85.0743 360.206 62.9913 455.048 139.193C549.89 215.394 602.294 242.438 832.244 234.431C1016.2 228.025 982.523 148.099 942.687 108.937C909.738 98.1062 847.561 61.2414 862.449 0.427311Z" stroke="#0959A0" stroke-opacity="0.5"/>
<path opacity="0.25" d="M846.02 10.582C877.568 -49.5892 755.86 -79.0849 691.063 -86.3113C580.721 -92.7021 346.352 -87.1077 291.607 -13.6044C223.175 78.2747 328.49 59.0287 402.026 137.561C475.561 216.093 520.331 244.483 751.607 242.861C936.628 241.563 925.045 161.01 896.126 120.896C866.279 109.196 814.472 70.7533 846.02 10.582Z" stroke="#0959A0" stroke-opacity="0.5"/>
<path opacity="0.291667" d="M830.096 19.9844C878.064 -39.086 764.926 -71.8328 702.362 -80.8224C594.197 -90.238 359.182 -91.1416 284.441 -19.4309C191.014 70.2075 301.218 53.9451 352.887 134.211C404.555 214.476 441.352 243.995 672.194 248.77C856.867 252.59 867.471 172.024 849.688 131.263C823.171 118.783 782.128 79.0549 830.096 19.9844Z" stroke="#0959A0" stroke-opacity="0.5"/>
<path opacity="0.333333" d="M814.882 28.6513C878.905 -28.8688 775.2 -64.6174 715.344 -75.3018C610.179 -87.6706 376.307 -95.0653 282.138 -25.6929C164.427 61.0226 278.683 47.8676 308.091 129.256C337.5 210.643 366.042 241.067 594.693 252.203C777.614 261.112 810.323 181.145 803.812 140.048C780.826 126.883 750.86 86.1714 814.882 28.6513Z" stroke="#0959A0" stroke-opacity="0.5"/>
<path opacity="0.375" d="M800.582 36.6055C880.172 -18.9265 786.688 -57.4049 729.997 -69.7027C628.632 -84.9307 397.683 -98.7601 284.803 -32.254C143.704 50.8786 261.14 40.931 268.065 122.822C274.99 204.713 295.061 235.809 519.781 253.222C699.557 267.151 754.122 188.393 758.933 147.272C739.653 133.522 720.992 92.1375 800.582 36.6055Z" stroke="#0959A0" stroke-opacity="0.5"/>
<path opacity="0.416667" d="M787.386 43.8743C881.937 -9.24695 799.386 -50.1624 746.291 -63.9799C649.498 -81.9511 423.229 -102.11 292.497 -38.9765C129.083 39.9406 248.808 33.2761 233.196 115.047C217.585 196.817 229.032 228.35 448.11 251.906C623.373 270.751 699.38 193.8 715.475 152.969C700.049 138.738 692.834 96.9955 787.386 43.8743Z" stroke="#0959A0" stroke-opacity="0.5"/>
<path opacity="0.458333" d="M775.479 50.4908C884.273 0.184619 813.282 -42.8564 764.188 -58.0886C672.703 -78.6663 452.835 -105.001 305.248 -45.7206C120.763 28.3803 241.864 25.0497 203.834 106.078C165.805 187.106 168.541 218.835 380.311 248.356C549.726 271.972 646.596 197.414 673.854 157.183C662.398 142.58 666.685 100.797 775.479 50.4908Z" stroke="#0959A0" stroke-opacity="0.5"/>
<path opacity="0.5" d="M765.034 56.4941C887.242 9.38578 828.352 -35.4532 783.632 -51.9842C698.151 -75.0116 486.36 -107.322 323.038 -52.3458C118.887 16.3751 240.442 16.4037 180.285 96.0726C120.127 175.741 114.131 207.425 316.98 242.686C479.26 270.894 596.255 199.297 634.468 159.972C627.07 145.108 642.826 103.602 765.034 56.4941Z" stroke="#0959A0" stroke-opacity="0.5"/>
<path opacity="0.541667" d="M756.215 61.9263C890.907 18.3744 844.567 -27.9214 804.561 -45.6252C725.735 -70.9273 523.631 -108.968 345.82 -58.7138C123.555 4.10393 244.64 7.49161 162.812 85.1949C80.9844 162.898 66.3018 194.296 258.687 235.028C412.595 267.613 548.826 199.522 597.703 161.403C594.418 146.39 621.523 105.478 756.215 61.9263Z" stroke="#0959A0" stroke-opacity="0.5"/>
<path opacity="0.583333" d="M749.172 66.8341C895.323 27.17 861.886 -20.2301 826.898 -38.9722C755.327 -66.3562 564.449 -109.837 373.5 -64.6879C134.814 -8.25141 254.507 -1.53051 151.632 73.6158C48.7561 148.762 25.4988 179.634 205.955 225.528C350.321 262.242 504.75 198.175 563.919 161.551C564.774 146.506 603.022 106.498 749.172 66.8341Z" stroke="#0959A0" stroke-opacity="0.5"/>
<path opacity="0.625" d="M744.044 71.2699C900.541 35.7956 880.26 -12.3482 850.557 -31.9858C786.786 -61.2436 608.586 -109.834 405.953 -70.1332C152.662 -20.5074 270.052 -10.5044 146.912 61.513C23.7722 133.531 -7.88276 163.643 159.272 214.348C292.996 254.913 464.449 195.356 533.459 160.507C538.447 145.543 587.546 106.744 744.044 71.2699Z" stroke="#0959A0" stroke-opacity="0.5"/>
<path opacity="0.666667" d="M740.952 75.2871C906.605 44.2725 899.634 -4.24858 875.443 -24.6323C819.957 -55.5409 655.791 -108.871 443.016 -74.9208C177.048 -32.4834 291.242 -19.2745 148.774 49.066C6.30698 117.407 -33.5047 146.529 119.076 201.661C241.141 245.766 428.312 191.175 506.639 158.366C515.721 143.596 575.298 106.302 740.952 75.2871Z" stroke="#0959A0" stroke-opacity="0.5"/>
<path opacity="0.708333" d="M740.005 78.9428C913.553 52.624 919.947 4.09495 901.45 -16.8797C854.671 -49.2041 705.79 -106.868 484.493 -78.9268C207.872 -44.0008 318 -27.6864 157.289 36.457C-3.4215 100.6 -51.0869 128.512 85.7588 187.651C195.235 234.961 396.7 185.75 483.748 155.23C496.855 140.767 566.457 105.262 740.005 78.9428Z" stroke="#0959A0" stroke-opacity="0.5"/>
<path opacity="0.75" d="M741.291 82.2997C921.413 60.8769 941.122 12.7092 928.461 -8.69683C890.745 -42.1909 758.281 -103.749 530.145 -82.0302C244.976 -54.8813 350.201 -35.5857 172.47 23.8725C-5.26051 83.3307 -60.4169 109.819 59.6522 172.514C155.707 222.67 369.933 179.213 465.039 151.215C482.072 137.17 561.168 103.722 741.291 82.2997Z" stroke="#0959A0" stroke-opacity="0.5"/>
<path opacity="0.791667" d="M744.885 85.4195C930.21 69.0558 963.084 21.6161 956.356 -0.0583723C927.991 -34.4672 812.951 -99.4519 579.714 -84.1199C288.167 -64.9548 387.688 -42.8248 194.289 11.4956C0.890973 65.8161 -61.3366 90.6795 41.0419 156.454C122.945 209.074 348.3 171.702 450.74 146.439C471.57 132.917 559.559 101.783 744.885 85.4195Z" stroke="#0959A0" stroke-opacity="0.5"/>
<path opacity="0.833333" d="M750.846 88.3679C939.964 77.1879 985.753 30.8371 985.008 9.05922C966.209 -26.0025 869.47 -93.9189 632.906 -85.0906C337.201 -74.0552 430.26 -49.2592 222.666 -0.489931C15.0717 48.2794 -53.7537 71.3285 30.1553 139.682C97.2825 194.365 332.053 163.363 441.048 141.027C465.514 128.132 561.727 99.548 750.846 88.3679Z" stroke="#0959A0" stroke-opacity="0.5"/>
<path opacity="0.875" d="M759.209 91.2079C950.681 85.2966 1009.04 40.3876 1014.28 18.672C1005.19 -16.7759 927.489 -87.1072 689.398 -84.8498C391.785 -82.028 477.674 -54.7548 257.464 -11.9078C37.2545 30.9391 -37.6446 51.9986 27.1562 122.411C78.9968 178.74 321.396 154.344 436.115 135.105C464.033 122.936 567.737 97.1193 759.209 91.2079Z" stroke="#0959A0" stroke-opacity="0.5"/>
<path opacity="0.916667" d="M769.997 94.011C962.365 93.4134 1032.84 50.2879 1044.04 28.7998C1044.72 -6.7643 986.651 -78.9752 748.846 -83.3059C451.59 -88.7192 529.655 -59.1763 298.505 -22.5777C67.3557 14.0208 -13.0472 32.9304 32.1521 104.865C68.3116 162.413 316.494 144.808 436.066 128.813C467.223 117.461 577.628 94.6087 769.997 94.011Z" stroke="#0959A0" stroke-opacity="0.5"/>
<path opacity="0.958333" d="M783.209 96.8412C975.009 101.562 1057.07 60.548 1074.13 39.4511C1084.59 4.04132 1046.59 -69.4997 810.88 -80.3855C516.243 -93.9927 585.89 -62.4049 345.56 -32.3333C105.23 -2.26175 19.9352 14.354 45.1893 87.2642C65.3925 145.592 317.47 134.913 440.983 122.282C475.142 111.835 591.409 92.1205 783.209 96.8412Z" stroke="#0959A0" stroke-opacity="0.5"/>
<path d="M798.83 99.7658C988.602 109.769 1081.63 71.1788 1104.42 50.6335C1124.58 15.6476 1106.93 -58.6637 875.111 -76.0218C585.335 -97.7195 646.035 -64.3272 398.353 -41.0114C150.672 -17.6956 61.1342 -3.50025 66.2506 69.8304C70.3438 128.495 324.397 124.822 450.913 115.653C487.813 106.189 609.057 89.7628 798.83 99.7658Z" stroke="#0959A0" stroke-opacity="0.5"/>
</g>
<defs>
<filter id="filter0_d_397_10" x="-12.416" y="-115.446" width="1254.1" height="378.682" filterUnits="userSpaceOnUse" color-interpolation-filters="sRGB">
<feFlood flood-opacity="0" result="BackgroundImageFix"/>
<feColorMatrix in="SourceAlpha" type="matrix" values="0 0 0 0 0 0 0 0 0 0 0 0 0 0 0 0 0 0 127 0" result="hardAlpha"/>
<feOffset dy="4"/>
<feGaussianBlur stdDeviation="2"/>
<feComposite in2="hardAlpha" operator="out"/>
<feColorMatrix type="matrix" values="0 0 0 0 0 0 0 0 0 0 0 0 0 0 0 0 0 0 0.25 0"/>
<feBlend mode="normal" in2="BackgroundImageFix" result="effect1_dropShadow_397_10"/>
<feBlend mode="normal" in="SourceGraphic" in2="effect1_dropShadow_397_10" result="shape"/>
</filter>
</defs>
</svg>
