<svg width="1560" height="428" viewBox="0 0 1560 428" fill="none" xmlns="http://www.w3.org/2000/svg">
<g id="Group" filter="url(#filter0_d_701_11)">
<path id="Vector 27" opacity="0.0416667" d="M1120.05 110.149C1068.44 51.3876 918.821 40.9642 850.463 43.0976C741.941 52.0913 536.987 88.5669 585.343 162.519C645.787 254.96 715.582 223.405 886.903 284.726C1058.22 346.047 1136.64 365.777 1344.08 333.316C1510.04 307.347 1392.17 235.893 1312.5 203.413C1269.85 196.809 1171.66 168.91 1120.05 110.149Z" stroke="#0959A0" stroke-opacity="0.5"/>
<path id="Vector 27_2" opacity="0.0833333" d="M1103.69 123.366C1068.43 63.4025 922.247 48.8842 853.562 49.1205C742.981 55.081 528.781 85.754 556.624 160.761C591.429 254.52 669.632 225.014 823.445 290.836C977.257 356.658 1049.95 378.48 1265.53 351.875C1437.99 330.591 1340.22 256.153 1269.77 221.594C1229.1 213.836 1138.95 183.33 1103.69 123.366Z" stroke="#0959A0" stroke-opacity="0.5"/>
<path id="Vector 27_3" opacity="0.125" d="M1087 135.822C1068.35 75.1121 926.715 56.6093 858.227 54.9466C746.429 57.8286 524.612 82.4656 531.732 157.957C540.631 252.321 626.648 225.088 761.782 294.91C896.916 364.732 963.335 388.48 1185.41 367.934C1363.06 351.497 1286.12 274.639 1225.44 238.265C1187.06 229.413 1105.64 196.532 1087 135.822Z" stroke="#0959A0" stroke-opacity="0.5"/>
<path id="Vector 27_4" opacity="0.166667" d="M1070.18 147.509C1068.29 86.5149 932.282 64.1684 864.511 60.6194C752.346 60.401 524.601 78.8144 510.943 154.215C493.87 248.466 587.045 223.714 702.472 297.005C817.9 370.295 877.538 395.788 1104.41 381.457C1285.91 369.992 1230.39 291.301 1179.94 253.388C1144.14 243.509 1072.06 208.503 1070.18 147.509Z" stroke="#0959A0" stroke-opacity="0.5"/>
<path id="Vector 27_5" opacity="0.208333" d="M1053.45 158.427C1068.34 97.6133 938.985 71.5932 872.447 66.1849C760.769 62.8677 528.83 74.9174 494.497 149.654C451.582 243.074 551.206 220.991 646.048 297.193C740.89 373.394 793.294 400.438 1023.24 392.431C1207.2 386.025 1173.52 306.099 1133.69 266.937C1100.74 256.106 1038.56 219.241 1053.45 158.427Z" stroke="#0959A0" stroke-opacity="0.5"/>
<path id="Vector 27_6" opacity="0.25" d="M1037.02 168.582C1068.57 108.411 946.86 78.9151 882.063 71.6887C771.721 65.298 537.352 70.8923 482.607 144.396C414.175 236.275 519.49 217.029 593.026 295.561C666.561 374.093 711.331 402.483 942.607 400.861C1127.63 399.563 1116.05 319.01 1087.13 278.896C1057.28 267.196 1005.47 228.753 1037.02 168.582Z" stroke="#0959A0" stroke-opacity="0.5"/>
<path id="Vector 27_7" opacity="0.291667" d="M1021.1 177.984C1069.06 118.914 955.926 86.1672 893.362 77.1776C785.197 67.762 550.182 66.8584 475.441 138.569C382.014 228.207 492.218 211.945 543.887 292.211C595.555 372.476 632.352 401.995 863.194 406.77C1047.87 410.59 1058.47 330.024 1040.69 289.263C1014.17 276.783 973.128 237.055 1021.1 177.984Z" stroke="#0959A0" stroke-opacity="0.5"/>
<path id="Vector 27_8" opacity="0.333333" d="M1005.88 186.651C1069.9 129.131 966.2 93.3826 906.344 82.6983C801.179 70.3294 567.307 62.9347 473.138 132.307C355.427 219.023 469.683 205.868 499.091 287.256C528.5 368.644 557.042 399.067 785.693 410.203C968.614 419.112 1001.32 339.145 994.812 298.048C971.826 284.883 941.86 244.171 1005.88 186.651Z" stroke="#0959A0" stroke-opacity="0.5"/>
<path id="Vector 27_9" opacity="0.375" d="M991.582 194.606C1071.17 139.074 977.688 100.595 920.997 88.2973C819.632 73.0693 588.683 59.2399 475.803 125.746C334.704 208.879 452.14 198.931 459.065 280.822C465.99 362.713 486.061 393.809 710.781 411.222C890.557 425.151 945.122 346.393 949.933 305.272C930.653 291.522 911.992 250.137 991.582 194.606Z" stroke="#0959A0" stroke-opacity="0.5"/>
<path id="Vector 27_10" opacity="0.416667" d="M978.386 201.874C1072.94 148.753 990.386 107.838 937.291 94.02C840.498 76.0488 614.229 55.8898 483.497 119.023C320.083 197.941 439.808 191.276 424.196 273.047C408.585 354.817 420.032 386.35 639.11 409.906C814.373 428.751 890.38 351.8 906.475 310.969C891.049 296.738 883.834 254.995 978.386 201.874Z" stroke="#0959A0" stroke-opacity="0.5"/>
<path id="Vector 27_11" opacity="0.458333" d="M966.479 208.491C1075.27 158.185 1004.28 115.144 955.188 99.9113C863.703 79.3337 643.835 52.9985 496.248 112.279C311.763 186.38 432.864 183.05 394.834 264.078C356.805 345.106 359.541 376.835 571.311 406.355C740.726 429.972 837.596 355.414 864.854 315.183C853.398 300.58 857.685 258.797 966.479 208.491Z" stroke="#0959A0" stroke-opacity="0.5"/>
<path id="Vector 27_12" opacity="0.5" d="M956.034 214.494C1078.24 167.386 1019.35 122.547 974.632 106.016C889.151 82.9884 677.36 50.6776 514.038 105.654C309.887 174.375 431.442 174.404 371.285 254.073C311.127 333.741 305.131 365.425 507.98 400.686C670.26 428.894 787.255 357.297 825.468 317.972C818.07 303.108 833.826 261.602 956.034 214.494Z" stroke="#0959A0" stroke-opacity="0.5"/>
<path id="Vector 27_13" opacity="0.541667" d="M947.215 219.926C1081.91 176.374 1035.57 130.079 995.561 112.375C916.735 87.0727 714.631 49.0321 536.82 99.2863C314.555 162.104 435.64 165.492 353.812 243.195C271.984 320.898 257.302 352.296 449.687 393.028C603.595 425.613 739.826 357.522 788.703 319.403C785.418 304.39 812.523 263.478 947.215 219.926Z" stroke="#0959A0" stroke-opacity="0.5"/>
<path id="Vector 27_14" opacity="0.583333" d="M940.172 224.834C1086.32 185.17 1052.89 137.77 1017.9 119.028C946.327 91.6438 755.449 48.1629 564.5 93.3121C325.814 149.749 445.507 156.469 342.632 231.616C239.756 306.762 216.499 337.634 396.955 383.528C541.321 420.242 695.75 356.175 754.919 319.551C755.774 304.506 794.022 264.498 940.172 224.834Z" stroke="#0959A0" stroke-opacity="0.5"/>
<path id="Vector 27_15" opacity="0.625" d="M935.044 229.27C1091.54 193.796 1071.26 145.652 1041.56 126.014C977.786 96.7565 799.586 48.1662 596.953 87.8669C343.662 137.493 461.052 147.496 337.912 219.513C214.772 291.531 183.117 321.643 350.272 372.348C483.996 412.913 655.449 353.356 724.459 318.507C729.447 303.543 778.546 264.744 935.044 229.27Z" stroke="#0959A0" stroke-opacity="0.5"/>
<path id="Vector 27_16" opacity="0.666667" d="M931.952 233.287C1097.6 202.272 1090.63 153.751 1066.44 133.368C1010.96 102.459 846.791 49.1293 634.016 83.0792C368.048 125.517 482.242 138.726 339.774 207.066C197.307 275.406 157.495 304.529 310.076 359.661C432.141 403.766 619.312 349.175 697.639 316.366C706.721 301.596 766.298 264.302 931.952 233.287Z" stroke="#0959A0" stroke-opacity="0.5"/>
<path id="Vector 27_17" opacity="0.708333" d="M931.005 236.943C1104.55 210.624 1110.95 162.095 1092.45 141.12C1045.67 108.796 896.79 51.1324 675.493 79.0732C398.872 113.999 509 130.314 348.289 194.457C187.578 258.6 139.913 286.512 276.759 345.651C386.235 392.961 587.7 343.75 674.748 313.23C687.855 298.767 757.457 263.262 931.005 236.943Z" stroke="#0959A0" stroke-opacity="0.5"/>
<path id="Vector 27_18" opacity="0.75" d="M932.291 240.3C1112.41 218.877 1132.12 170.709 1119.46 149.303C1081.75 115.809 949.281 54.2508 721.145 75.9699C435.976 103.119 541.201 122.414 363.47 181.873C185.739 241.331 130.583 267.819 250.652 330.514C346.707 380.67 560.933 337.213 656.039 309.215C673.072 295.17 752.168 261.722 932.291 240.3Z" stroke="#0959A0" stroke-opacity="0.5"/>
<path id="Vector 27_19" opacity="0.791667" d="M935.885 243.419C1121.21 227.056 1154.08 179.616 1147.36 157.942C1118.99 123.533 1003.95 58.5481 770.714 73.8801C479.167 93.0452 578.688 115.175 385.289 169.496C191.891 223.816 129.663 248.679 232.042 314.454C313.945 367.074 539.3 329.702 641.74 304.439C662.57 290.917 750.559 259.783 935.885 243.419Z" stroke="#0959A0" stroke-opacity="0.5"/>
<path id="Vector 27_20" opacity="0.833333" d="M941.846 246.368C1130.96 235.188 1176.75 188.837 1176.01 167.059C1157.21 131.997 1060.47 64.081 823.906 72.9094C528.201 83.9448 621.26 108.741 413.666 157.51C206.072 206.279 137.246 229.328 221.155 297.682C288.282 352.365 523.053 321.363 632.048 299.026C656.514 286.132 752.727 257.548 941.846 246.368Z" stroke="#0959A0" stroke-opacity="0.5"/>
<path id="Vector 27_21" opacity="0.875" d="M950.209 249.208C1141.68 243.297 1200.04 198.388 1205.28 176.672C1196.19 141.224 1118.49 70.8928 880.398 73.1502C582.785 75.972 668.674 103.245 448.464 146.092C228.254 188.939 153.355 209.999 218.156 280.411C269.997 336.74 512.396 312.344 627.115 293.105C655.033 280.936 758.737 255.119 950.209 249.208Z" stroke="#0959A0" stroke-opacity="0.5"/>
<path id="Vector 27_22" opacity="0.916667" d="M960.997 252.011C1153.36 251.413 1223.84 208.288 1235.04 186.8C1235.72 151.236 1177.65 79.0248 939.846 74.6941C642.59 69.2807 720.655 98.8237 489.505 135.422C258.356 172.021 177.953 190.93 223.152 262.865C259.312 320.413 507.494 302.808 627.066 286.813C658.223 275.461 768.628 252.609 960.997 252.011Z" stroke="#0959A0" stroke-opacity="0.5"/>
<path id="Vector 27_23" opacity="0.958333" d="M974.209 254.841C1166.01 259.562 1248.07 218.548 1265.13 197.451C1275.59 162.041 1237.59 88.5004 1001.88 77.6146C707.243 64.0073 776.89 95.5951 536.56 125.667C296.23 155.738 210.935 172.354 236.189 245.264C256.392 303.592 508.47 292.913 631.983 280.282C666.142 269.835 782.409 250.121 974.209 254.841Z" stroke="#0959A0" stroke-opacity="0.5"/>
<path id="Vector 27_24" d="M989.83 257.766C1179.6 267.769 1272.63 229.179 1295.42 208.634C1315.58 173.648 1297.93 99.3363 1066.11 81.9782C776.335 60.2806 837.035 93.6729 589.353 116.989C341.672 140.304 252.134 154.5 257.251 227.83C261.344 286.495 515.397 282.822 641.913 273.653C678.813 264.189 800.057 247.763 989.83 257.766Z" stroke="#0959A0" stroke-opacity="0.5"/>
</g>
<defs>
<filter id="filter0_d_701_11" x="178.584" y="42.554" width="1254.1" height="378.682" filterUnits="userSpaceOnUse" color-interpolation-filters="sRGB">
<feFlood flood-opacity="0" result="BackgroundImageFix"/>
<feColorMatrix in="SourceAlpha" type="matrix" values="0 0 0 0 0 0 0 0 0 0 0 0 0 0 0 0 0 0 127 0" result="hardAlpha"/>
<feOffset dy="4"/>
<feGaussianBlur stdDeviation="2"/>
<feComposite in2="hardAlpha" operator="out"/>
<feColorMatrix type="matrix" values="0 0 0 0 0 0 0 0 0 0 0 0 0 0 0 0 0 0 0.25 0"/>
<feBlend mode="normal" in2="BackgroundImageFix" result="effect1_dropShadow_701_11"/>
<feBlend mode="normal" in="SourceGraphic" in2="effect1_dropShadow_701_11" result="shape"/>
</filter>
</defs>
</svg>
