<svg width="910" height="584" viewBox="0 0 910 584" fill="none" xmlns="http://www.w3.org/2000/svg">
<path opacity="0.0416667" d="M1152.77 60.0746C1101.88 -41.3342 949.529 -61.8441 879.715 -59.4229C768.714 -45.9915 558.491 12.7033 605.606 140.031C664.5 299.191 736.665 246.484 909.628 354.419C1082.59 462.354 1162.01 497.501 1374.65 445.716C1544.77 404.287 1426.65 279.985 1346.33 223.012C1303.02 210.953 1203.66 161.483 1152.77 60.0746Z" stroke="#FFFEFE" stroke-opacity="0.5"/>
<path opacity="0.0833333" d="M1135.68 82.3832C1101.51 -20.7886 952.786 -48.2393 882.695 -49.0681C769.685 -40.8604 550.202 7.74594 576.355 136.509C609.048 297.464 689.731 248.412 844.694 363.729C999.657 479.046 1073.17 517.668 1293.94 476.042C1470.56 442.742 1373.03 313.696 1302.19 253.335C1260.93 239.339 1169.86 185.555 1135.68 82.3832Z" stroke="#FFFEFE" stroke-opacity="0.5"/>
<path opacity="0.125" d="M1118.27 103.383C1101.08 -0.766753 957.114 -34.9493 887.281 -39.0219C773.121 -36.1004 546.048 2.04755 551.041 131.267C557.283 292.791 645.87 247.766 781.654 369.588C917.439 491.41 984.495 533.213 1211.71 502.064C1393.47 477.145 1317.28 344.337 1256.46 281.047C1217.56 265.222 1135.47 207.532 1118.27 103.383Z" stroke="#FFFEFE" stroke-opacity="0.5"/>
<path opacity="0.166667" d="M1100.76 123.066C1100.68 18.7312 962.566 -21.9231 893.523 -29.2084C779.081 -31.5953 546.147 -4.19609 529.942 124.495C509.686 285.36 605.502 244.706 721.074 372.105C836.647 499.505 896.732 544.17 1128.66 523.735C1314.19 507.388 1259.91 371.828 1209.57 306.091C1173.34 288.556 1100.85 227.401 1100.76 123.066Z" stroke="#FFFEFE" stroke-opacity="0.5"/>
<path opacity="0.208333" d="M1083.36 141.436C1100.38 37.7103 969.182 -9.10638 901.453 -19.549C787.601 -27.2261 550.578 -10.7842 513.299 116.4C466.699 275.38 569.016 239.406 663.496 371.414C757.976 503.422 810.633 550.609 1045.5 541.044C1233.4 533.392 1201.44 396.113 1161.97 328.429C1128.68 309.317 1066.34 245.162 1083.36 141.436Z" stroke="#FFFEFE" stroke-opacity="0.5"/>
<path opacity="0.25" d="M1066.29 158.506C1100.29 56.1786 976.995 3.55579 911.096 -9.96466C798.701 -22.8736 559.393 -17.5141 501.322 107.195C428.734 263.081 536.772 232.061 609.441 367.672C682.111 503.284 726.938 552.634 962.971 554.011C1151.8 555.113 1142.4 417.159 1114.1 348.044C1084 327.501 1032.29 260.833 1066.29 158.506Z" stroke="#FFFEFE" stroke-opacity="0.5"/>
<path opacity="0.291667" d="M1049.76 174.298C1100.48 74.1481 986.028 16.1197 922.46 -0.375641C812.377 -18.4181 572.606 -24.1818 494.186 97.1031C396.161 248.709 509.098 222.878 559.403 361.061C609.709 499.244 646.366 550.382 881.763 562.691C1070.08 572.539 1083.32 434.959 1066.41 364.939C1039.72 343.121 999.04 274.449 1049.76 174.298Z" stroke="#FFFEFE" stroke-opacity="0.5"/>
<path opacity="0.333333" d="M1033.98 188.846C1101.04 91.6348 996.295 28.6425 935.543 9.29772C828.609 -13.741 590.199 -30.584 492.026 86.3536C369.31 232.526 486.288 212.081 513.846 351.784C541.405 491.486 569.613 544.023 802.583 567.17C988.959 585.688 1024.74 449.531 1019.33 379.137C996.275 356.212 966.923 286.057 1033.98 188.846Z" stroke="#FFFEFE" stroke-opacity="0.5"/>
<path opacity="0.375" d="M1019.15 202.191C1102.03 108.659 1007.8 41.1822 950.325 19.1353C847.355 -8.72433 612.12 -36.5185 494.942 75.1819C348.47 214.807 468.597 199.905 473.199 340.064C477.801 480.223 497.345 533.758 726.116 567.568C909.132 594.615 967.177 460.916 973.323 390.686C954.064 366.826 936.268 295.723 1019.15 202.191Z" stroke="#FFFEFE" stroke-opacity="0.5"/>
<path opacity="0.416667" d="M1005.47 214.384C1103.54 125.243 1020.54 53.795 966.779 29.2138C868.556 -3.25476 638.288 -41.7885 502.996 63.8244C333.882 195.841 456.244 186.593 437.855 326.142C419.465 465.691 430.197 519.818 653.026 564.032C831.289 599.403 911.158 469.18 928.81 399.647C913.497 375.035 907.391 303.525 1005.47 214.384Z" stroke="#FFFEFE" stroke-opacity="0.5"/>
<path opacity="0.458333" d="M993.117 225.484C1105.64 141.413 1034.5 66.5378 984.862 39.6092C892.134 2.77889 668.584 -46.2012 516.208 52.5206C325.739 175.923 449.405 172.401 408.164 310.278C366.924 448.155 368.761 502.461 583.953 556.743C756.106 600.169 857.191 474.412 886.214 406.106C874.964 380.929 880.595 309.556 993.117 225.484Z" stroke="#FFFEFE" stroke-opacity="0.5"/>
<path opacity="0.5" d="M982.278 235.563C1108.39 157.2 1049.65 79.4679 1004.52 50.397C917.991 9.48526 702.86 -49.5684 534.561 41.5109C324.186 155.36 448.215 157.591 384.437 292.746C320.658 427.902 313.586 481.974 519.504 545.911C684.238 597.06 805.769 476.728 845.942 410.169C838.841 384.618 856.166 313.925 982.278 235.563Z" stroke="#FFFEFE" stroke-opacity="0.5"/>
<path opacity="0.541667" d="M973.116 244.693C1111.86 172.637 1065.97 92.6384 1025.68 61.6464C946.012 16.9645 740.939 -51.7133 557.996 31.0304C329.318 134.46 452.765 142.426 366.934 273.831C281.103 405.236 265.177 458.663 460.253 531.769C616.313 590.253 757.366 476.261 808.384 411.954C805.485 386.224 834.372 316.75 973.116 244.693Z" stroke="#FFFEFE" stroke-opacity="0.5"/>
<path opacity="0.583333" d="M965.783 252.96C1116.1 187.757 1083.41 106.102 1048.27 73.4244C976.07 25.3125 782.614 -52.4667 586.42 21.3116C341.178 113.535 463.105 127.176 355.875 253.831C248.645 380.485 223.986 432.86 406.735 514.578C552.934 579.952 712.435 473.167 773.91 411.603C775.235 385.889 815.464 318.162 965.783 252.96Z" stroke="#FFFEFE" stroke-opacity="0.5"/>
<path opacity="0.625" d="M960.417 260.453C1121.17 202.6 1101.92 119.91 1072.2 85.7958C1008.02 34.6199 827.65 -51.6689 619.698 12.5825C359.759 92.8968 479.237 112.109 351.424 233.05C223.611 353.991 190.406 404.915 359.438 494.622C494.664 566.388 671.398 467.624 742.862 409.27C748.401 383.77 799.666 318.305 960.417 260.453Z" stroke="#FFFEFE" stroke-opacity="0.5"/>
<path opacity="0.666667" d="M957.141 267.267C1127.1 217.205 1121.45 134.108 1097.38 98.8172C1041.69 44.967 875.787 -49.1745 657.66 5.06108C385.001 72.8556 501.122 97.4928 353.699 211.799C206.276 326.105 164.777 375.191 318.805 472.206C442.028 549.818 634.651 459.825 715.56 405.127C725.271 380.033 787.183 317.329 957.141 267.267Z" stroke="#FFFEFE" stroke-opacity="0.5"/>
<path opacity="0.708333" d="M956.064 273.501C1133.94 231.611 1141.92 148.74 1123.68 112.541C1076.92 56.4262 926.742 -44.8518 700.1 -1.0448C416.797 53.7139 528.677 83.5885 362.765 190.39C196.854 297.192 147.378 344.066 285.23 447.65C395.512 530.517 602.558 449.981 692.296 399.354C706.105 374.857 778.192 315.392 956.064 273.501Z" stroke="#FFFEFE" stroke-opacity="0.5"/>
<path opacity="0.75" d="M957.275 279.264C1141.71 245.864 1163.27 163.851 1150.99 127.019C1113.52 69.0664 980.208 -38.5772 746.776 -5.53222C454.986 35.7739 561.772 70.6585 378.635 169.143C195.498 267.627 138.422 311.932 259.049 421.297C355.55 508.789 575.444 438.322 673.327 392.152C691.13 368.44 772.842 312.665 957.275 279.264Z" stroke="#FFFEFE" stroke-opacity="0.5"/>
<path opacity="0.791667" d="M960.85 284.664C1150.44 260.008 1185.41 179.476 1179.2 142.291C1151.29 82.9425 1035.86 -30.2473 797.418 -8.21589C499.36 19.3234 600.241 58.9524 401.272 148.37C202.303 237.787 138.061 279.187 240.544 393.5C322.531 484.951 553.598 425.09 658.883 383.728C680.543 360.98 771.26 309.32 960.85 284.664Z" stroke="#FFFEFE" stroke-opacity="0.5"/>
<path opacity="0.833333" d="M966.843 289.813C1160.15 274.089 1208.26 195.651 1208.16 158.397C1190.03 98.1032 1093.37 -19.7715 851.721 -8.92125C549.665 4.64158 643.872 48.7135 430.585 128.383C217.298 208.053 146.379 246.232 229.939 364.624C296.788 459.337 537.27 410.538 649.155 374.299C674.508 352.688 773.539 305.536 966.843 289.813Z" stroke="#FFFEFE" stroke-opacity="0.5"/>
<path opacity="0.875" d="M975.291 294.819C1170.84 288.148 1231.73 212.4 1237.74 175.36C1229.53 114.581 1152.36 -7.08172 909.356 -7.49524C605.6 -8.01216 692.416 40.1673 466.435 109.483C240.454 178.8 163.397 213.467 227.399 335.036C278.6 432.292 526.667 394.925 644.301 364.085C673.153 343.776 779.744 301.491 975.291 294.819Z" stroke="#FFFEFE" stroke-opacity="0.5"/>
<path opacity="0.916667" d="M986.214 299.806C1182.52 302.238 1255.73 229.757 1267.79 193.213C1269.57 132.41 1212.48 7.88611 969.967 -3.78802C666.823 -18.3807 745.588 33.5395 508.632 91.9745C271.677 150.409 189.069 181.302 233.024 305.123C268.188 404.18 521.953 378.53 644.439 353.324C676.571 334.472 789.912 297.375 986.214 299.806Z" stroke="#FFFEFE" stroke-opacity="0.5"/>
<path opacity="0.958333" d="M999.609 304.883C1195.17 316.398 1280.14 247.737 1298.18 211.967C1309.92 151.604 1273.35 25.1652 1033.17 2.31931C732.95 -26.2381 803.064 29.0278 556.938 76.1367C310.811 123.246 223.281 150.128 246.855 275.259C265.715 375.363 523.245 361.626 649.652 342.245C684.82 324.993 804.047 293.368 999.609 304.883Z" stroke="#FFFEFE" stroke-opacity="0.5"/>
<path d="M1015.46 310.165C1208.79 330.676 1304.87 266.357 1328.75 231.633C1350.37 172.168 1334.6 44.778 1098.58 10.9342C803.56 -31.3706 864.49 26.8203 611.066 62.2448C357.641 97.6692 265.854 120.336 268.869 245.825C271.281 346.216 530.616 344.495 659.982 331.087C697.919 315.566 822.124 289.653 1015.46 310.165Z" stroke="#FFFEFE" stroke-opacity="0.5"/>
</svg>
