<svg width="50" height="50" viewBox="0 0 50 50" fill="none" xmlns="http://www.w3.org/2000/svg">
<g clip-path="url(#clip0_233_41)">
<path d="M36 14.75H14C11.6528 14.75 9.75 16.6528 9.75 19V30C9.75 32.3472 11.6528 34.25 14 34.25H36C38.3472 34.25 40.25 32.3472 40.25 30V19C40.25 16.6528 38.3472 14.75 36 14.75Z" stroke="white" stroke-width="1.5"/>
<path d="M11 16L21.2667 22.7528M21.2667 22.7528L25 25.2083L28.7333 22.7528M21.2667 22.7528L11.3733 33M39 16L28.7333 22.7528M28.7333 22.7528L38.6267 33" stroke="white"/>
<path d="M25 49.75C38.669 49.75 49.75 38.669 49.75 25C49.75 11.331 38.669 0.25 25 0.25C11.331 0.25 0.25 11.331 0.25 25C0.25 38.669 11.331 49.75 25 49.75Z" stroke="white" stroke-width="0.5"/>
</g>
<defs>
<clipPath id="clip0_233_41">
<rect width="50" height="50" fill="white"/>
</clipPath>
</defs>
</svg>
