<svg width="1337" height="643" viewBox="0 0 1337 643" fill="none" xmlns="http://www.w3.org/2000/svg">
<mask id="path-1-inside-1_206_10" fill="white">
<path d="M977.229 107.777C909.99 8.95476 755.135 -4.45305 686.113 1.1958C577.942 19.7373 378.535 88.0346 446.27 212.892C530.938 368.963 594.05 313.034 783.74 412.714C973.43 512.394 1058.17 543.783 1261.11 482.267C1423.47 433.055 1285.63 314.505 1196.42 261.381C1151.37 251.355 1044.47 206.599 977.229 107.777Z"/>
<path d="M960.665 131.365C909.76 30.0094 757.374 9.50848 687.544 11.9274C576.518 25.3501 366.249 84.0106 413.376 211.271C472.285 370.346 544.466 317.669 717.47 425.548C890.473 533.427 969.91 568.556 1182.6 516.802C1352.76 475.398 1234.61 351.161 1154.27 294.217C1110.95 282.164 1011.57 232.72 960.665 131.365Z"/>
<path d="M943.573 153.661C909.389 50.5439 760.631 23.106 690.525 22.2767C577.489 30.4785 357.957 79.0558 384.118 207.751C416.82 368.619 497.521 319.594 652.521 434.852C807.521 550.109 881.055 588.711 1101.87 547.111C1278.53 513.831 1180.97 384.852 1110.12 324.523C1068.85 310.534 977.756 256.778 943.573 153.661Z"/>
<path d="M926.16 174.649C908.958 70.5551 764.961 36.3889 695.112 32.3176C580.926 35.236 353.802 73.3604 358.799 202.51C365.044 363.948 453.65 318.949 589.467 440.707C725.284 562.466 792.356 604.247 1019.62 573.118C1201.43 548.215 1125.21 415.477 1064.38 352.22C1025.47 336.402 943.362 278.743 926.16 174.649Z"/>
<path d="M908.645 194.321C908.555 90.0426 770.414 49.4082 701.355 42.1259C586.888 39.7388 353.901 67.1201 337.694 195.742C317.436 356.52 413.273 315.889 528.873 443.222C644.473 570.555 704.573 615.197 936.549 594.776C1122.13 578.44 1067.83 442.952 1017.48 377.25C981.24 359.723 908.735 298.6 908.645 194.321Z"/>
<path d="M891.242 212.681C908.265 109.012 777.032 62.2182 709.288 51.7802C595.41 44.1057 358.334 60.5356 321.047 187.651C274.439 346.546 376.778 310.592 471.282 442.531C565.785 574.469 618.455 621.631 853.38 612.075C1041.32 604.429 1009.35 467.223 969.87 399.576C936.567 380.473 874.219 316.351 891.242 212.681Z"/>
<path d="M874.167 229.742C908.174 127.47 784.847 74.8736 718.933 61.3596C606.512 48.4561 367.15 53.8095 309.068 178.451C236.465 334.253 344.527 303.25 417.215 438.79C489.902 574.33 534.741 623.654 770.827 625.034C959.696 626.138 950.296 488.257 921.988 419.179C891.878 398.647 840.16 332.014 874.167 229.742Z"/>
<path d="M857.633 245.526C908.364 145.43 793.882 87.431 730.3 70.9436C620.192 52.9093 380.366 47.1455 301.929 168.364C203.884 319.888 316.847 294.072 367.165 432.182C417.484 570.291 454.151 621.402 689.601 633.708C877.962 643.553 891.206 506.047 874.282 436.064C847.594 414.258 806.901 345.622 857.633 245.526Z"/>
<path d="M841.847 260.065C908.917 162.907 804.152 99.9471 743.385 80.6119C636.427 57.5841 397.963 40.7469 299.769 157.62C177.028 303.712 294.031 283.281 321.598 422.909C349.165 562.537 377.38 615.046 610.403 638.184C796.822 656.694 832.609 520.61 827.2 450.254C804.136 427.341 774.777 357.223 841.847 260.065Z"/>
<path d="M827.013 273.403C909.911 179.922 815.659 112.48 758.171 90.4444C655.177 62.5983 419.889 34.8159 302.686 146.455C156.182 286.003 276.336 271.11 280.941 411.195C285.546 551.279 305.096 604.786 533.918 638.58C716.976 665.615 775.033 531.988 781.179 461.796C761.916 437.948 744.115 366.884 827.013 273.403Z"/>
<path d="M813.327 285.589C911.422 196.497 828.402 125.087 774.629 100.518C676.384 68.0653 446.062 29.5491 310.741 135.104C141.591 267.047 263.98 257.806 245.589 397.28C227.197 536.754 237.932 590.852 460.812 635.045C639.116 670.399 719.001 540.247 736.656 470.752C721.34 446.152 715.231 374.681 813.327 285.589Z"/>
<path d="M800.975 296.683C913.521 212.658 842.364 137.823 792.716 110.908C699.967 74.096 476.365 25.1391 323.956 123.806C133.446 247.14 257.14 243.622 215.891 381.424C174.643 519.226 176.481 573.503 391.723 627.759C563.916 671.164 665.022 545.476 694.051 477.207C682.798 452.043 688.429 380.708 800.975 296.683Z"/>
<path d="M790.135 306.756C916.275 228.438 857.521 150.746 812.377 121.69C725.829 80.7991 510.649 21.7742 342.313 112.802C131.892 226.588 255.949 228.819 192.158 363.901C128.367 498.983 121.294 553.026 327.259 616.932C492.031 668.056 613.588 547.79 653.77 481.267C646.667 455.729 663.994 385.075 790.135 306.756Z"/>
<path d="M780.97 315.882C919.745 243.866 873.843 163.91 833.545 132.934C753.857 88.2747 548.736 19.631 365.753 102.328C137.024 205.699 260.5 213.663 174.651 344.996C88.8028 476.33 72.874 529.727 267.995 602.796C424.092 661.251 565.174 547.322 616.203 483.051C613.303 457.335 642.196 387.898 780.97 315.882Z"/>
<path d="M773.636 324.144C923.988 258.978 891.287 177.366 856.143 144.706C783.922 96.6187 590.421 18.8785 394.184 92.6147C148.887 184.785 270.842 198.42 163.59 325.006C56.3371 451.591 31.6729 503.938 214.465 585.614C360.698 650.955 520.233 544.229 581.721 482.699C583.046 457 623.284 389.309 773.636 324.144Z"/>
<path d="M768.268 331.633C929.054 273.813 909.803 191.167 880.079 157.071C815.875 105.921 635.467 19.6765 427.469 83.8907C167.472 164.158 286.978 183.362 159.137 304.236C31.2969 425.11 -1.91512 476.007 167.156 565.668C302.414 637.398 479.187 538.689 550.666 480.368C556.206 454.881 607.482 389.452 768.268 331.633Z"/>
<path d="M764.992 338.443C934.988 288.41 929.333 205.358 905.256 170.086C849.557 116.263 683.615 22.1702 465.439 76.3738C192.72 144.128 308.867 168.754 161.412 282.997C13.9569 397.239 -27.55 446.298 126.514 543.263C249.766 620.835 442.432 530.893 523.358 476.226C533.071 451.145 594.996 388.476 764.992 338.443Z"/>
<path d="M763.915 344.674C941.827 302.808 949.811 219.982 931.565 183.802C884.795 127.717 734.582 26.4914 507.889 70.2718C224.523 124.997 336.428 154.857 170.48 261.599C4.53244 368.341 -44.9535 415.19 92.9313 518.72C203.239 601.544 410.331 521.054 500.089 470.456C513.901 445.972 586.003 386.539 763.915 344.674Z"/>
<path d="M765.127 350.434C949.601 317.054 971.164 235.085 958.886 198.273C921.401 140.351 788.06 32.7633 554.576 65.7874C262.72 107.068 369.531 141.935 186.353 240.364C3.17567 338.793 -53.9125 383.074 66.7433 492.381C163.268 579.828 383.21 509.402 481.116 463.258C498.922 439.558 580.652 383.814 765.127 350.434Z"/>
<path d="M768.703 355.831C958.335 331.191 993.313 250.702 987.097 213.537C959.183 154.22 843.729 41.0894 605.229 63.1058C307.104 90.6262 408.008 130.235 208.995 219.602C9.98196 308.969 -54.2742 350.346 48.2344 464.599C130.241 556.002 361.36 496.176 466.668 454.838C488.333 432.102 579.07 380.471 768.703 355.831Z"/>
<path d="M774.696 360.977C968.044 345.265 1016.17 266.869 1016.06 229.635C997.932 169.373 901.244 51.5604 659.544 62.4016C357.42 75.9531 451.649 120.003 238.315 199.627C24.9805 279.251 -45.9545 317.409 37.6267 435.738C104.492 530.402 345.028 481.631 456.938 445.414C482.296 423.815 581.349 376.689 774.696 360.977Z"/>
<path d="M783.147 365.981C978.738 359.316 1039.65 283.609 1045.65 246.589C1037.44 185.842 960.253 64.2442 717.193 63.8276C413.367 63.3069 500.204 111.462 274.173 180.738C48.1417 250.014 -28.9325 284.662 35.0853 406.166C86.2995 503.37 334.422 466.027 452.082 435.205C480.941 414.907 587.556 372.646 783.147 365.981Z"/>
<path d="M794.072 370.966C990.418 373.398 1063.64 300.958 1075.71 264.433C1077.49 203.663 1020.39 79.2048 777.817 67.5337C474.604 52.9448 553.388 104.838 316.379 163.239C79.3707 221.639 -3.25599 252.514 40.711 376.269C75.8846 475.273 329.706 449.641 452.22 424.449C484.36 405.608 597.725 368.533 794.072 370.966Z"/>
<path d="M807.471 376.04C1003.08 387.551 1088.06 318.928 1106.11 283.178C1117.85 222.847 1081.27 96.4755 841.04 73.6386C540.746 45.0925 610.877 100.33 364.696 147.41C118.514 194.49 30.9636 221.357 54.5454 346.421C73.4108 446.472 330.999 432.746 457.435 413.377C492.61 396.134 611.864 364.528 807.471 376.04Z"/>
<path d="M823.324 381.319C1016.7 401.822 1112.8 337.538 1136.68 302.833C1158.3 243.401 1142.53 116.079 906.461 82.2497C611.372 39.9636 672.317 98.1241 418.836 133.526C165.354 168.928 73.5465 191.582 76.5636 317.003C78.9771 417.34 338.371 415.624 467.767 402.225C505.711 386.713 629.945 360.815 823.324 381.319Z"/>
</mask>
<path d="M977.229 107.777C909.99 8.95476 755.135 -4.45305 686.113 1.1958C577.942 19.7373 378.535 88.0346 446.27 212.892C530.938 368.963 594.05 313.034 783.74 412.714C973.43 512.394 1058.17 543.783 1261.11 482.267C1423.47 433.055 1285.63 314.505 1196.42 261.381C1151.37 251.355 1044.47 206.599 977.229 107.777Z" stroke="#FFFEFE" stroke-opacity="0.5" stroke-width="1" mask="url(#path-1-inside-1_206_10)"/>
<path d="M960.665 131.365C909.76 30.0094 757.374 9.50848 687.544 11.9274C576.518 25.3501 366.249 84.0106 413.376 211.271C472.285 370.346 544.466 317.669 717.47 425.548C890.473 533.427 969.91 568.556 1182.6 516.802C1352.76 475.398 1234.61 351.161 1154.27 294.217C1110.95 282.164 1011.57 232.72 960.665 131.365Z" stroke="#FFFEFE" stroke-opacity="0.5" stroke-width="1" mask="url(#path-1-inside-1_206_10)"/>
<path d="M943.573 153.661C909.389 50.5439 760.631 23.106 690.525 22.2767C577.489 30.4785 357.957 79.0558 384.118 207.751C416.82 368.619 497.521 319.594 652.521 434.852C807.521 550.109 881.055 588.711 1101.87 547.111C1278.53 513.831 1180.97 384.852 1110.12 324.523C1068.85 310.534 977.756 256.778 943.573 153.661Z" stroke="#FFFEFE" stroke-opacity="0.5" stroke-width="1" mask="url(#path-1-inside-1_206_10)"/>
<path d="M926.16 174.649C908.958 70.5551 764.961 36.3889 695.112 32.3176C580.926 35.236 353.802 73.3604 358.799 202.51C365.044 363.948 453.65 318.949 589.467 440.707C725.284 562.466 792.356 604.247 1019.62 573.118C1201.43 548.215 1125.21 415.477 1064.38 352.22C1025.47 336.402 943.362 278.743 926.16 174.649Z" stroke="#FFFEFE" stroke-opacity="0.5" stroke-width="1" mask="url(#path-1-inside-1_206_10)"/>
<path d="M908.645 194.321C908.555 90.0426 770.414 49.4082 701.355 42.1259C586.888 39.7388 353.901 67.1201 337.694 195.742C317.436 356.52 413.273 315.889 528.873 443.222C644.473 570.555 704.573 615.197 936.549 594.776C1122.13 578.44 1067.83 442.952 1017.48 377.25C981.24 359.723 908.735 298.6 908.645 194.321Z" stroke="#FFFEFE" stroke-opacity="0.5" stroke-width="1" mask="url(#path-1-inside-1_206_10)"/>
<path d="M891.242 212.681C908.265 109.012 777.032 62.2182 709.288 51.7802C595.41 44.1057 358.334 60.5356 321.047 187.651C274.439 346.546 376.778 310.592 471.282 442.531C565.785 574.469 618.455 621.631 853.38 612.075C1041.32 604.429 1009.35 467.223 969.87 399.576C936.567 380.473 874.219 316.351 891.242 212.681Z" stroke="#FFFEFE" stroke-opacity="0.5" stroke-width="1" mask="url(#path-1-inside-1_206_10)"/>
<path d="M874.167 229.742C908.174 127.47 784.847 74.8736 718.933 61.3596C606.512 48.4561 367.15 53.8095 309.068 178.451C236.465 334.253 344.527 303.25 417.215 438.79C489.902 574.33 534.741 623.654 770.827 625.034C959.696 626.138 950.296 488.257 921.988 419.179C891.878 398.647 840.16 332.014 874.167 229.742Z" stroke="#FFFEFE" stroke-opacity="0.5" stroke-width="1" mask="url(#path-1-inside-1_206_10)"/>
<path d="M857.633 245.526C908.364 145.43 793.882 87.431 730.3 70.9436C620.192 52.9093 380.366 47.1455 301.929 168.364C203.884 319.888 316.847 294.072 367.165 432.182C417.484 570.291 454.151 621.402 689.601 633.708C877.962 643.553 891.206 506.047 874.282 436.064C847.594 414.258 806.901 345.622 857.633 245.526Z" stroke="#FFFEFE" stroke-opacity="0.5" stroke-width="1" mask="url(#path-1-inside-1_206_10)"/>
<path d="M841.847 260.065C908.917 162.907 804.152 99.9471 743.385 80.6119C636.427 57.5841 397.963 40.7469 299.769 157.62C177.028 303.712 294.031 283.281 321.598 422.909C349.165 562.537 377.38 615.046 610.403 638.184C796.822 656.694 832.609 520.61 827.2 450.254C804.136 427.341 774.777 357.223 841.847 260.065Z" stroke="#FFFEFE" stroke-opacity="0.5" stroke-width="1" mask="url(#path-1-inside-1_206_10)"/>
<path d="M827.013 273.403C909.911 179.922 815.659 112.48 758.171 90.4444C655.177 62.5983 419.889 34.8159 302.686 146.455C156.182 286.003 276.336 271.11 280.941 411.195C285.546 551.279 305.096 604.786 533.918 638.58C716.976 665.615 775.033 531.988 781.179 461.796C761.916 437.948 744.115 366.884 827.013 273.403Z" stroke="#FFFEFE" stroke-opacity="0.5" stroke-width="1" mask="url(#path-1-inside-1_206_10)"/>
<path d="M813.327 285.589C911.422 196.497 828.402 125.087 774.629 100.518C676.384 68.0653 446.062 29.5491 310.741 135.104C141.591 267.047 263.98 257.806 245.589 397.28C227.197 536.754 237.932 590.852 460.812 635.045C639.116 670.399 719.001 540.247 736.656 470.752C721.34 446.152 715.231 374.681 813.327 285.589Z" stroke="#FFFEFE" stroke-opacity="0.5" stroke-width="1" mask="url(#path-1-inside-1_206_10)"/>
<path d="M800.975 296.683C913.521 212.658 842.364 137.823 792.716 110.908C699.967 74.096 476.365 25.1391 323.956 123.806C133.446 247.14 257.14 243.622 215.891 381.424C174.643 519.226 176.481 573.503 391.723 627.759C563.916 671.164 665.022 545.476 694.051 477.207C682.798 452.043 688.429 380.708 800.975 296.683Z" stroke="#FFFEFE" stroke-opacity="0.5" stroke-width="1" mask="url(#path-1-inside-1_206_10)"/>
<path d="M790.135 306.756C916.275 228.438 857.521 150.746 812.377 121.69C725.829 80.7991 510.649 21.7742 342.313 112.802C131.892 226.588 255.949 228.819 192.158 363.901C128.367 498.983 121.294 553.026 327.259 616.932C492.031 668.056 613.588 547.79 653.77 481.267C646.667 455.729 663.994 385.075 790.135 306.756Z" stroke="#FFFEFE" stroke-opacity="0.5" stroke-width="1" mask="url(#path-1-inside-1_206_10)"/>
<path d="M780.97 315.882C919.745 243.866 873.843 163.91 833.545 132.934C753.857 88.2747 548.736 19.631 365.753 102.328C137.024 205.699 260.5 213.663 174.651 344.996C88.8028 476.33 72.874 529.727 267.995 602.796C424.092 661.251 565.174 547.322 616.203 483.051C613.303 457.335 642.196 387.898 780.97 315.882Z" stroke="#FFFEFE" stroke-opacity="0.5" stroke-width="1" mask="url(#path-1-inside-1_206_10)"/>
<path d="M773.636 324.144C923.988 258.978 891.287 177.366 856.143 144.706C783.922 96.6187 590.421 18.8785 394.184 92.6147C148.887 184.785 270.842 198.42 163.59 325.006C56.3371 451.591 31.6729 503.938 214.465 585.614C360.698 650.955 520.233 544.229 581.721 482.699C583.046 457 623.284 389.309 773.636 324.144Z" stroke="#FFFEFE" stroke-opacity="0.5" stroke-width="1" mask="url(#path-1-inside-1_206_10)"/>
<path d="M768.268 331.633C929.054 273.813 909.803 191.167 880.079 157.071C815.875 105.921 635.467 19.6765 427.469 83.8907C167.472 164.158 286.978 183.362 159.137 304.236C31.2969 425.11 -1.91512 476.007 167.156 565.668C302.414 637.398 479.187 538.689 550.666 480.368C556.206 454.881 607.482 389.452 768.268 331.633Z" stroke="#FFFEFE" stroke-opacity="0.5" stroke-width="1" mask="url(#path-1-inside-1_206_10)"/>
<path d="M764.992 338.443C934.988 288.41 929.333 205.358 905.256 170.086C849.557 116.263 683.615 22.1702 465.439 76.3738C192.72 144.128 308.867 168.754 161.412 282.997C13.9569 397.239 -27.55 446.298 126.514 543.263C249.766 620.835 442.432 530.893 523.358 476.226C533.071 451.145 594.996 388.476 764.992 338.443Z" stroke="#FFFEFE" stroke-opacity="0.5" stroke-width="1" mask="url(#path-1-inside-1_206_10)"/>
<path d="M763.915 344.674C941.827 302.808 949.811 219.982 931.565 183.802C884.795 127.717 734.582 26.4914 507.889 70.2718C224.523 124.997 336.428 154.857 170.48 261.599C4.53244 368.341 -44.9535 415.19 92.9313 518.72C203.239 601.544 410.331 521.054 500.089 470.456C513.901 445.972 586.003 386.539 763.915 344.674Z" stroke="#FFFEFE" stroke-opacity="0.5" stroke-width="1" mask="url(#path-1-inside-1_206_10)"/>
<path d="M765.127 350.434C949.601 317.054 971.164 235.085 958.886 198.273C921.401 140.351 788.06 32.7633 554.576 65.7874C262.72 107.068 369.531 141.935 186.353 240.364C3.17567 338.793 -53.9125 383.074 66.7433 492.381C163.268 579.828 383.21 509.402 481.116 463.258C498.922 439.558 580.652 383.814 765.127 350.434Z" stroke="#FFFEFE" stroke-opacity="0.5" stroke-width="1" mask="url(#path-1-inside-1_206_10)"/>
<path d="M768.703 355.831C958.335 331.191 993.313 250.702 987.097 213.537C959.183 154.22 843.729 41.0894 605.229 63.1058C307.104 90.6262 408.008 130.235 208.995 219.602C9.98196 308.969 -54.2742 350.346 48.2344 464.599C130.241 556.002 361.36 496.176 466.668 454.838C488.333 432.102 579.07 380.471 768.703 355.831Z" stroke="#FFFEFE" stroke-opacity="0.5" stroke-width="1" mask="url(#path-1-inside-1_206_10)"/>
<path d="M774.696 360.977C968.044 345.265 1016.17 266.869 1016.06 229.635C997.932 169.373 901.244 51.5604 659.544 62.4016C357.42 75.9531 451.649 120.003 238.315 199.627C24.9805 279.251 -45.9545 317.409 37.6267 435.738C104.492 530.402 345.028 481.631 456.938 445.414C482.296 423.815 581.349 376.689 774.696 360.977Z" stroke="#FFFEFE" stroke-opacity="0.5" stroke-width="1" mask="url(#path-1-inside-1_206_10)"/>
<path d="M783.147 365.981C978.738 359.316 1039.65 283.609 1045.65 246.589C1037.44 185.842 960.253 64.2442 717.193 63.8276C413.367 63.3069 500.204 111.462 274.173 180.738C48.1417 250.014 -28.9325 284.662 35.0853 406.166C86.2995 503.37 334.422 466.027 452.082 435.205C480.941 414.907 587.556 372.646 783.147 365.981Z" stroke="#FFFEFE" stroke-opacity="0.5" stroke-width="1" mask="url(#path-1-inside-1_206_10)"/>
<path d="M794.072 370.966C990.418 373.398 1063.64 300.958 1075.71 264.433C1077.49 203.663 1020.39 79.2048 777.817 67.5337C474.604 52.9448 553.388 104.838 316.379 163.239C79.3707 221.639 -3.25599 252.514 40.711 376.269C75.8846 475.273 329.706 449.641 452.22 424.449C484.36 405.608 597.725 368.533 794.072 370.966Z" stroke="#FFFEFE" stroke-opacity="0.5" stroke-width="1" mask="url(#path-1-inside-1_206_10)"/>
<path d="M807.471 376.04C1003.08 387.551 1088.06 318.928 1106.11 283.178C1117.85 222.847 1081.27 96.4755 841.04 73.6386C540.746 45.0925 610.877 100.33 364.696 147.41C118.514 194.49 30.9636 221.357 54.5454 346.421C73.4108 446.472 330.999 432.746 457.435 413.377C492.61 396.134 611.864 364.528 807.471 376.04Z" stroke="#FFFEFE" stroke-opacity="0.5" stroke-width="1" mask="url(#path-1-inside-1_206_10)"/>
<path d="M823.324 381.319C1016.7 401.822 1112.8 337.538 1136.68 302.833C1158.3 243.401 1142.53 116.079 906.461 82.2497C611.372 39.9636 672.317 98.1241 418.836 133.526C165.354 168.928 73.5465 191.582 76.5636 317.003C78.9771 417.34 338.371 415.624 467.767 402.225C505.711 386.713 629.945 360.815 823.324 381.319Z" stroke="#FFFEFE" stroke-opacity="0.5" stroke-width="1" mask="url(#path-1-inside-1_206_10)"/>
</svg>
