<svg width="727" height="477" viewBox="0 0 727 477" fill="none" xmlns="http://www.w3.org/2000/svg">
<path d="M467.5 69L455.5 63.5C455.5 64.6667 455.8 67.1 457 67.5C458.5 68 464.5 74 465.5 76.5C466.3 78.5 470.5 80.6667 472.5 81.5L473.5 84.5C474.667 91 477.6 105.8 480 113C482.4 120.2 488.667 130.667 491.5 135L490 138.5L494 144C490.833 145.667 484.4 149.2 484 150C483.6 150.8 480.167 149.667 478.5 149C478.167 148 477.7 147.2 478.5 152C479.3 156.8 485.167 158 488 158C489.6 154.8 497.333 154.667 501 155L500 162C499.333 164 498.2 169.2 499 174C500 180 497 182 495 185C493.4 187.4 493 192.667 493 195C495 195 499.833 197.333 502 198.5L501 210H499C498 213.833 495.8 222.3 495 225.5C494 229.5 491.5 253.5 491.5 254.5C491.5 255.3 493.167 254.833 494 254.5C495.167 263.333 497.5 281.6 497.5 284C497.5 287 496 299 497.5 313.5C498.7 325.1 497 332 496 334H493.5C495.5 337.333 498.3 345.1 493.5 349.5C488.7 353.9 488.167 358.333 488.5 360C497.7 363.2 503.667 357 505.5 353.5L507 347.5H509.5L517 340L515.5 338C515.1 336 511.333 331.833 509.5 330L508.5 331.5C507.833 326.5 507.1 314.8 509.5 308C512.5 299.5 513 290.5 513 289.5C513 288.5 511 280.5 511.5 271C512 261.5 518 247 518 251.5C518 256 519.5 251.5 523.5 266C526.7 277.6 526.5 284.5 526 286.5C530 300.9 529.333 309.833 528.5 312.5L526 313.5C528 318.3 526.833 319.833 526 320C523.167 320.167 517.6 321.8 518 327C518.4 332.2 525.833 333.167 529.5 333L530.5 335C533.3 335.8 540 334.667 543 334V322.5L541.5 319C540 316 539.5 312.5 539.5 311C539.5 309.5 546.5 276 541.5 268.5C537.5 262.5 537.5 249 538 243V236.5H539.5C541 234 542 216 541.5 214C541.1 212.4 539 209 538 207.5L543 208.5C542.667 204.167 541.7 194.6 540.5 191C539.3 187.4 540 181.167 540.5 178.5L543 166V155C543 150.5 541.5 145.5 540.5 144C539.5 142.5 529.5 140.5 526 138.5C523.2 136.9 524.833 134.167 526 133C528.167 131.167 532.5 126.2 532.5 121C532.5 114.5 522.5 112 519 112C515.5 112 513 117 513 118.5C513 119.7 511.667 120.667 511 121L508 123L509 126.5V128.5V131C504 127.167 493.7 118.6 492.5 115C491 110.5 489.5 103.5 488 101C486.8 99 479.5 84.5 476 77.5L467.5 69Z" fill="#072744"/>
<path d="M370.5 135C373.7 137 373.167 138.5 372.5 139C370.167 140.667 364.8 143.8 362 143C359.2 142.2 351 143 344 143H337C343.5 139.5 355.5 128 356 119.5C356.4 112.7 352.833 112.333 351 113V115.5C349.167 117.333 345.8 121.5 347 123.5C348.2 125.5 346.5 128 345.5 129C338.333 131 323.2 136.3 320 141.5C316.8 146.7 320.333 149.667 322.5 150.5L339.5 158.5C342.5 159.5 349.6 161.8 354 163C358.4 164.2 364.833 170.833 367.5 174L368.5 180.5L372 185.5C371.167 186.667 369.5 189.8 369.5 193C369.5 196.2 366.167 199.333 364.5 200.5C363.5 202.833 361.2 208 360 210C358.8 212 357.167 221.167 356.5 225.5L352 232.5L353.5 233.5L343 244.5C337 240.5 324.167 242.167 318.5 243.5H311C310.667 242 309.6 238.6 308 237C306.4 235.4 302.667 235 301 235C298.833 236.5 294.4 240 294 242C293.6 244 290.5 245.833 289 246.5L280.5 253C279.833 254.833 278.4 259 278 261C277.5 263.5 277.5 268 283 269C287.4 269.8 296.833 262.333 301 258.5C300.833 257.833 301.4 256.3 305 255.5C308.6 254.7 330.833 258.833 341.5 261C342.167 261.5 345.5 262.8 353.5 264C361.5 265.2 367.5 255.833 369.5 251L378 242V247.5C378 254.833 377.4 269.6 375 270C372 270.5 357 284 355 290C353.4 294.8 347.667 298 345 299C343.5 298.833 339.8 298.5 337 298.5C334.2 298.5 332.167 300.833 331.5 302V311L333.5 315V320L331 324C330.5 334 332.5 339.5 335 341C337 342.2 339.5 341.5 340.5 341C341.5 339.833 343.7 335.7 344.5 328.5C345.3 321.3 348.833 317.5 350.5 316.5C350.333 315.5 350.4 312.8 352 310C354 306.5 380 285.5 386.5 281.5C391.7 278.3 394.666 273.833 395.5 272C397.9 263.2 401.166 258 402.5 256.5H405.5L411 229L413.5 215L412.5 198.5C414.5 170 413.5 163.5 410.5 154C408.1 146.4 411.5 139.167 413.5 136.5C414.167 134.333 416.3 128.7 419.5 123.5C422.7 118.3 425.167 112 426 109.5L427 93C428.833 90.6667 432.8 85.3 434 82.5C435.2 79.7 437.5 75.6667 438.5 74H433C432.6 74 428.167 78.3333 426 80.5L422 88.5C420.667 92.1667 417.5 100.5 415.5 104.5C413 109.5 410.5 114 410.5 115.5C410.5 116.7 404.833 125 402 129L397 131C395 131.8 393.833 132.667 393.5 133L394 132L393.5 131L391 130L392 129C391.666 128 391.2 125.8 392 125L392 125C392.8 124.2 394 123 393.5 122.5L389.5 121L387 119.5L384.5 117C381.333 115.667 373.6 114.3 368 119.5C361 126 366.5 132.5 370.5 135Z" fill="#072744"/>
<circle cx="438.5" cy="16.5" r="16.5" fill="#072744"/>
<path d="M664 183C666 180.2 671.167 179.5 673.5 179.5C673.5 175.5 674.167 169.5 674.5 167C671.333 161.333 664.9 149.4 664.5 147C664.1 144.6 659 137 656.5 133.5C655.667 133.5 653.5 133 651.5 131C649 128.5 643 121.5 642 119.5C641.2 117.9 642.333 114.833 643 113.5H649C655 115.5 659.167 119 660.5 120.5L663 128C668.667 133.833 681 147.2 685 154C689 160.8 691 169.167 691.5 172.5L694 199.5C697.5 207.5 697 224 697 225.5C697 226.7 695.667 253.667 695 267C699.5 279 701.5 302.5 702 309C702.4 314.2 699.5 320.5 698 323C695.5 326 690 334.5 688 344.5C686 354.5 683.5 358.333 682.5 359L679 362.5V375C688 381 698.5 394 701.5 402C703.9 408.4 711.5 415 715 417.5L716 416L719 418C721 419.333 725.3 422.7 726.5 425.5C727.7 428.3 721.667 433 718.5 435C716.333 435 711.2 436.3 708 441.5C705.428 445.68 700.744 449.063 697.534 450.922C697.906 454.466 697.392 457.934 697 459.5H690L681.5 464C672.5 464.667 654.3 465.9 653.5 465.5C652.5 465 651 461 651.5 459.5C652 458 664.5 448 666 447C667.5 446 671 440 673 435C674.6 431 673.667 426.333 673 424.5C669.5 418.5 662 404.4 660 396C657.5 385.5 649.5 377 646.5 372.5C644.1 368.9 643.833 361.333 644 358L649.5 344.5L653.5 310C652.5 309.333 650.7 306.9 651.5 302.5C652.5 298.5 650.5 280.5 650.5 280C650.5 279.5 648.5 269.5 647 260.5C645.5 251.5 643.5 238 642 235.5C640.5 233 624 219 618.5 214.5C613 210 610.5 206.5 608.5 201.5C606.9 197.5 607.833 179.167 608.5 170.5C609 166 610.4 156.1 612 152.5C614 148 617.5 148.5 618.5 145.5C619.3 143.1 620.833 139.833 621.5 138.5L623 139.5C623 137.9 627 134.833 629 133.5C629.166 136.167 629.4 142 629 144C628.5 146.5 621.5 153 618.5 155.5C616.1 157.5 616.166 158.667 616.5 159C618.1 162.6 621.5 187.5 623 199.5C627.166 203.667 637.1 211.6 643.5 210C649.9 208.4 656.833 212.333 659.5 214.5C661.5 212.5 660.333 209 659.5 207.5L655.5 204C653.5 200.4 655.667 197.833 657 197L658 195C658.333 195 659.2 194.7 660 193.5C661 192 659.5 191 659.5 190.5C659.5 190 659 188.5 660 188.5C661 188.5 661.5 186.5 664 183Z" fill="#072744"/>
<path d="M52.9996 204C55.7996 208.4 57.8329 216.5 58.4996 220C52.4993 219.2 46.3331 222 44 223.5C39.8333 225.833 31.4 230.5 31 230.5C30.5 230.5 25 242 23 245C21 248 25 261 25 262.5V277.5C25 279 27.5 283.5 27 288.5C26.6 292.5 28.5 301.167 29.5 305C29.1667 308.167 28.5 314.8 28.5 316C28.5 317.5 31 322 31 323.5C31 325 31 329.5 28.5 332.5C26.5 334.9 29.3333 338.833 31 340.5C31.3333 341.667 32.2 345.6 33 352C33.8 358.4 33.3333 367.667 33 371.5V384.5C21.8 392.9 19 411 19 419C18.1667 421 16.6 425.9 17 429.5C17.5 434 13.5 444.5 11 446C9 447.2 5.5 454.5 4 458L1.5 465L0 471C4 478.6 16.3333 476.833 22 475L28.5 471V466.5C28.8333 463.833 29.8 458.1 31 456.5C32.2 454.9 32.8333 451.833 33 450.5L34 434.5C36.8 432.9 37.8333 427.5 38 425C49.2 417.8 52.3333 404.333 52.5 398.5L60 392.5L72.5 394.5L76.5 391.5L79.5 380.5C80.3333 379.167 83.4 375.8 89 373C94.6 370.2 107.333 375.5 113 378.5L119 386.5H133.5L145.5 385.5C150 386.667 161.3 389.5 170.5 391.5C179.7 393.5 186 399.667 188 402.5C192.333 408.167 203.3 421.1 212.5 427.5C221.7 433.9 228.333 444.833 230.5 449.5L231.5 454L240 465C240 466.833 240.9 471 244.5 473C248.1 475 260 468.5 265.5 465L275 459C273.5 455.833 269.7 449.5 266.5 449.5C263.3 449.5 259.167 448.5 257.5 448L246.5 438H244.5C238.9 434.4 230.833 421.5 227.5 415.5C224.333 410.167 217.5 398.1 215.5 392.5C213 385.5 198 377.5 196 376.5C194.4 375.7 181 362.5 174.5 356C172.5 350 159.5 344 156.5 340.5C154.1 337.7 147.833 333 145 331L141 329.5C140.667 329 139.8 327.5 139 325.5C138 323 134.5 323 131.5 322C129.1 321.2 128.5 319 128.5 318L123.5 311.5L122 306C121.667 304.833 120.2 301.7 117 298.5C113.8 295.3 111.333 289.167 110.5 286.5L115 288.5C116.667 292.333 121 301.5 125 307.5C130 315 137 314 141 316C144.2 317.6 148 320.667 149.5 322C173 328 168.5 316 168.5 314.5C168.5 313 168 311.5 164.5 309C161.7 307 160 302.5 159.5 300.5C161.833 299.833 166.6 298.2 167 297C167.5 295.5 163 293.5 162 295.5C161.2 297.1 153.667 298.167 150 298.5C148 296.833 143.2 292.9 140 290.5C136.8 288.1 135 284.833 134.5 283.5L136 282.5C134.833 278 132 268.3 130 265.5C127.5 262 127.5 251.5 127 247.5C126.5 243.5 123 236 119 230.5C115.8 226.1 106.667 222.333 102.5 221V219C102.333 218.5 101.9 217.3 101.5 216.5C101.1 215.7 102 214.5 102.5 214C102.667 213.667 103.3 212.9 104.5 212.5C105.7 212.1 105.333 209.667 105 208.5L100.5 204L99 202L100.5 199V195L98 191.5C97.3333 190 95.3 186 92.5 182C89 177 80.9996 175 66.4996 176.5C51.9996 178 49.4996 198.5 52.9996 204Z" fill="#072744"/>
</svg>
