<svg width="50" height="50" viewBox="0 0 50 50" fill="none" xmlns="http://www.w3.org/2000/svg">
<g clip-path="url(#clip0_233_21)">
<path d="M25 50C38.8071 50 50 38.8071 50 25C50 11.1929 38.8071 0 25 0C11.1929 0 0 11.1929 0 25C0 38.8071 11.1929 50 25 50Z" fill="white"/>
<path d="M25.4614 29.7114C28.3609 29.7114 30.7114 27.3609 30.7114 24.4614C30.7114 21.5619 28.3609 19.2114 25.4614 19.2114C22.5619 19.2114 20.2114 21.5619 20.2114 24.4614C20.2114 27.3609 22.5619 29.7114 25.4614 29.7114Z" stroke="#094A84" stroke-width="1.5"/>
<path d="M33.5 19C34.3284 19 35 18.3284 35 17.5C35 16.6716 34.3284 16 33.5 16C32.6716 16 32 16.6716 32 17.5C32 18.3284 32.6716 19 33.5 19Z" fill="#094A84"/>
<path d="M31 13H20C16.6863 13 14 15.6863 14 19V30C14 33.3137 16.6863 36 20 36H31C34.3137 36 37 33.3137 37 30V19C37 15.6863 34.3137 13 31 13Z" stroke="#094A84" stroke-width="2"/>
</g>
<defs>
<clipPath id="clip0_233_21">
<rect width="50" height="50" fill="white"/>
</clipPath>
</defs>
</svg>
