<svg width="50" height="50" viewBox="0 0 50 50" fill="none" xmlns="http://www.w3.org/2000/svg">
<g clip-path="url(#clip0_233_32)">
<path d="M25 49.75C38.669 49.75 49.75 38.669 49.75 25C49.75 11.331 38.669 0.25 25 0.25C11.331 0.25 0.25 11.331 0.25 25C0.25 38.669 11.331 49.75 25 49.75Z" stroke="white" stroke-width="0.5"/>
<path d="M25.4614 29.7114C28.3609 29.7114 30.7114 27.3609 30.7114 24.4614C30.7114 21.5619 28.3609 19.2114 25.4614 19.2114C22.5619 19.2114 20.2114 21.5619 20.2114 24.4614C20.2114 27.3609 22.5619 29.7114 25.4614 29.7114Z" stroke="white" stroke-width="1.5"/>
<path d="M33.5 19C34.3284 19 35 18.3284 35 17.5C35 16.6716 34.3284 16 33.5 16C32.6716 16 32 16.6716 32 17.5C32 18.3284 32.6716 19 33.5 19Z" fill="white"/>
<path d="M31 12.75H20C16.5482 12.75 13.75 15.5482 13.75 19V30C13.75 33.4518 16.5482 36.25 20 36.25H31C34.4518 36.25 37.25 33.4518 37.25 30V19C37.25 15.5482 34.4518 12.75 31 12.75Z" stroke="white" stroke-width="1.5"/>
</g>
<defs>
<clipPath id="clip0_233_32">
<rect width="50" height="50" fill="white"/>
</clipPath>
</defs>
</svg>
