<svg width="50" height="50" viewBox="0 0 50 50" fill="none" xmlns="http://www.w3.org/2000/svg">
<g clip-path="url(#clip0_233_26)">
<path d="M14.7209 17H10C10.3597 31.166 20.9406 33.5137 26.186 32.9169V27.5449C29.9628 27.0674 32.8553 30.9273 33.8295 32.9169H39C39 30.211 34.354 26.4838 32.031 24.9584C35.2682 23.6851 37.4264 19.1222 38.1008 17H33.155C32.4357 20.6609 28.2093 22.6372 26.186 23.1678V17H21.4651V28.1418C16.4295 28.1418 14.8708 20.7139 14.7209 17Z" fill="white"/>
<path d="M25 49.75C38.669 49.75 49.75 38.669 49.75 25C49.75 11.331 38.669 0.25 25 0.25C11.331 0.25 0.25 11.331 0.25 25C0.25 38.669 11.331 49.75 25 49.75Z" stroke="white" stroke-width="0.5"/>
</g>
<defs>
<clipPath id="clip0_233_26">
<rect width="50" height="50" fill="white"/>
</clipPath>
</defs>
</svg>
