<svg width="50" height="50" viewBox="0 0 50 50" fill="none" xmlns="http://www.w3.org/2000/svg">
<g clip-path="url(#clip0_233_51)">
<path d="M25 50C38.8071 50 50 38.8071 50 25C50 11.1929 38.8071 0 25 0C11.1929 0 0 11.1929 0 25C0 38.8071 11.1929 50 25 50Z" fill="white"/>
<path d="M36 14H14C11.2386 14 9 16.2386 9 19V31C9 33.7614 11.2386 36 14 36H36C38.7614 36 41 33.7614 41 31V19C41 16.2386 38.7614 14 36 14Z" fill="#094A84"/>
<path d="M22 30V20L30 25.2941L22 30Z" fill="white"/>
</g>
<defs>
<clipPath id="clip0_233_51">
<rect width="50" height="50" fill="white"/>
</clipPath>
</defs>
</svg>
