<svg width="433" height="316" viewBox="0 0 433 316" fill="none" xmlns="http://www.w3.org/2000/svg">
<circle cx="21.5" cy="21.5" r="21.5" fill="#002B44"/>
<path d="M131.347 144.805C116.496 155.939 93.7502 169.072 85.4998 175C78.489 178.665 68.3 187.775 63.5 188.876C58.7 189.977 56.9117 183.149 57.8674 179.598C64.0552 175.217 77.5135 166.454 81.8449 166.454C87.2592 166.454 111.237 134.754 117.425 127.022C122.375 120.836 140.629 107.95 149.137 102.28L170.794 62.8481V58.209C174.507 48.9309 184.716 46.6113 189.357 46.6113C190.5 41.5 192.967 32.6941 194.771 30.3746C206 14 224.5 16 232.671 21.8696C240 26.5 246.5 39 239 62.8481C250.138 64.7037 267.735 80.6312 272.892 88.363C274.439 92.4866 279.698 103.363 288.361 113.878C297.024 124.393 294.5 133 300.5 143L302 147C303.443 148.102 312.648 162.897 320.074 182.691C327.499 202.484 334.512 213.102 337.09 215.937C348.692 217.484 375.299 226.453 388.912 249.957C402.525 273.462 417.273 279.853 422.945 280.111L433 298.667V312.585C416.912 318.77 407.733 315.162 405.155 312.585V294.139C404.912 295.093 403.48 294.316 398.967 286.297C392.006 273.926 352.559 251.504 340.184 249.957C327.808 248.411 316.98 241.452 310.792 233.721C305.842 227.535 296.354 210.525 292.229 202.793C289.393 199.701 280.472 190.113 267.478 176.505C254.483 162.897 241.437 164.134 236.539 166.454C223.648 169.804 193.534 177.124 176.208 179.598C158.882 182.072 155.067 188.361 155.325 191.196C154.551 200.732 150.22 224.133 139.082 241.452C127.944 258.771 129.284 271.348 131.347 275.472C131.347 279.338 132.12 288.307 135.214 293.255C138.308 298.204 136.503 305.626 135.214 308.719H114.331L111.237 304.853L104.276 308.719C88.8062 311.811 75.6572 307.43 71.0164 304.853V298.667C87.1045 298.049 99.8926 282.946 104.276 275.472H111.237C115.104 266.967 125.933 202.793 123.612 193.515C121.756 186.093 124.386 179.083 125.933 176.505L94.9939 188.876L78.4998 198C65.4998 200 59.7871 193.866 63.4998 190C70.9251 183.815 86.6012 180.485 91.4998 181C98.461 177.134 146.043 150.217 159.965 141.712C171.103 134.908 193.482 123.929 203.28 119.29C197.092 116.197 195.029 108.723 194.771 105.373C186.109 99.806 184.974 89.6516 185.49 85.2702L153.004 123.156C151.973 125.733 146.198 133.671 131.347 144.805Z" fill="#002B44"/>
</svg>
