<svg width="411" height="560" viewBox="0 0 411 560" fill="none" xmlns="http://www.w3.org/2000/svg">
<path d="M230.6 135.238C232.634 133.531 235.686 133.389 236.958 133.531C236.958 133.105 237.552 131.484 239.925 128.412C242.299 125.34 246.849 124.004 248.827 123.719C247.132 124.06 245.577 126.705 245.012 127.985C248.403 125.938 251.512 124.857 252.642 124.572C250.947 125.596 249.675 126.421 249.251 126.705C255.016 123.975 257.588 126.137 258.153 127.559C254.423 126.876 248.403 130.403 245.86 132.251C246.708 132.678 249.421 133.019 253.49 130.972C257.559 128.924 261.403 129.55 262.816 130.118C261.459 130.801 260.555 131.825 260.272 132.251C262.406 131.446 266.08 130.764 268.65 130.371C269.163 130.212 269.758 130.118 270.446 130.118C269.964 130.179 269.347 130.264 268.65 130.371C266.637 130.995 265.896 132.625 265.783 133.531C272.226 132.849 273.272 134.385 272.989 135.238C271.633 134.214 269.881 134.811 269.174 135.238C275.533 136.944 277.652 143.344 276.38 147.183C275.363 150.255 277.652 151.307 278.924 151.449C283.671 147.354 285.141 146.899 285.282 147.183C280.535 151.279 280.195 154.009 280.619 154.862C281.298 153.838 283.163 153.582 284.01 153.582C282.654 154.947 283.163 156.142 283.587 156.569C285.96 154.521 289.662 152.302 291.217 151.449C290.539 152.132 288.956 155.715 288.249 157.422C291.507 152.058 297.371 150.206 300.876 149.823C294.992 137.589 286.061 123.487 284.01 122.013C281.637 120.306 253.066 104.948 266.631 104.948C279.348 112.627 266.631 97.6955 266.631 97.6955C266.631 97.6955 263.898 94.0923 262.816 93.0028C262.533 92.7184 260.693 90.5682 262.816 88.7366C265.783 86.1769 278.076 99.8286 270.446 90.0165C262.816 80.2043 270.022 81.9108 273.413 84.4704C273.413 84.4704 285.282 99.4021 278.076 88.7365C270.87 78.071 278.924 82.7639 280.619 84.0437C281.318 84.5712 282.521 85.9682 283.723 87.5778C283.949 86.5678 284.546 85.38 286.13 86.1769C288.673 87.4567 291.217 97.6955 291.217 97.6955C291.217 97.6955 294.727 102.41 296.303 105.801C298.414 110.341 296.367 111.774 299.695 118.173C303.023 124.572 313.259 138.224 329.791 157.422C346.323 176.62 335.302 182.592 329.791 188.565C324.281 194.537 277.652 218.855 267.902 218.855C258.153 218.855 253.914 219.708 252.642 223.121C251.37 226.534 236.11 235.919 213.644 254.264C195.671 268.939 204.742 290.242 211.524 299.059C235.262 313.99 231.871 330.202 231.023 348.12C230.345 362.454 234.132 376.845 236.11 382.249C237.382 388.364 244.164 400.508 261.12 400.167C278.076 399.826 299.836 410.548 308.596 415.952C312.129 417.089 321.568 420.303 331.063 424.057C340.558 427.812 348.584 427.897 351.41 427.47C356.214 423.204 368.112 418.341 377.268 433.016C386.424 447.692 394.93 453.92 398.039 455.2C401.43 456.765 408.551 463.135 409.908 476.105C411.264 489.074 402.56 487.481 398.039 485.064C389.843 480.086 369.638 467.487 354.377 456.907C339.117 446.327 326.541 442.828 322.161 442.402C312.553 441.975 291.471 440.781 284.01 439.416C274.685 437.709 247.132 435.576 248.403 436.856C249.421 437.88 250.24 444.677 250.523 447.948C276.38 446.668 300.119 462.026 313.259 471.412C326.4 480.797 349.291 488.476 354.377 489.33C359.464 490.183 363.279 485.064 365.822 485.064C368.366 485.064 379.811 483.784 380.659 496.582C381.337 506.821 388.854 517.628 392.528 521.752C396.908 528.436 404.482 544.278 399.734 554.175C394.987 564.073 389.278 559.152 387.017 555.455C386.876 554.602 385.746 550.933 382.354 543.083C378.115 533.271 349.291 526.445 351.41 519.619C353.106 514.159 350.704 511.087 349.291 510.234C341.491 504.091 313.259 498.573 300.119 496.582C287.119 493.596 260.103 487.111 256.033 485.064C251.964 483.016 238.23 480.513 231.871 479.517C216.611 481.224 220.002 476.531 214.915 472.692C210.846 469.62 198.807 447.521 193.297 436.856L178.036 397.607C171.819 383.813 158.876 355.713 156.842 353.666C154.807 351.618 150.342 324.94 148.364 311.857C143.277 297.523 143.136 282.278 143.701 276.448C144.831 269.195 146.838 253.155 145.82 247.011C144.803 240.868 147.092 230.516 148.364 226.107C147.94 216.722 150.907 212.882 152.179 209.469C153.196 206.739 152.603 201.506 152.179 199.23C146.414 199.913 138.473 198.377 135.223 197.524C127.593 194.253 111.146 187.882 106.398 188.565C101.65 189.247 95.6593 186.858 93.2572 185.579C77.9969 180.459 63.4431 169.225 58.0738 164.248C54.4 158.986 45.4417 148.634 38.9985 149.316C30.9444 150.169 23.3143 142.917 22.4665 141.637C21.6187 140.357 15.6842 140.784 10.5974 140.357C5.51065 139.931 5.93455 137.371 5.93455 136.518C5.93455 135.835 15.5429 136.233 20.347 136.518L18.6514 135.664C12.9995 132.963 1.61081 127.388 1.27169 126.705C0.847793 125.852 -0.0293696 123.039 2.54338 122.866C4.24018 122.752 5.81623 123.013 7.2957 123.503C3.30319 120.742 0 117.774 0 115.613C0 111.518 5.65195 113.338 8.47793 114.76L23.3143 124.146C22.4665 121.728 20.8557 116.467 21.1949 114.76C21.6188 112.627 25.0099 112.2 25.8577 116.04C26.536 119.112 29.8141 124.43 31.3684 126.705C36.879 131.825 50.4437 142.661 60.6172 145.05C70.7907 147.439 97.3549 161.972 109.365 168.94C113.463 168.372 123.778 167.575 132.256 168.94C142.853 170.647 148.788 172.353 163.624 168.94C175.493 166.21 181.852 173.775 183.547 177.899C185.921 177.558 193.579 178.042 197.112 178.326C202.481 175.482 211.694 168.429 205.59 162.968C197.96 156.142 200.927 148.889 203.47 147.183C205.505 145.818 206.579 143.201 206.861 142.064L209.829 141.21L211.948 138.224C212.655 137.655 214.237 135.92 214.915 133.531C215.594 131.142 218.024 131.683 219.154 132.251C219.72 132.678 221.189 133.873 222.546 135.238C224.241 136.944 228.056 137.371 230.6 135.238Z" fill="#072744"/>
<ellipse cx="130.136" cy="29.0099" rx="28.8249" ry="29.0099" fill="#072744"/>
</svg>
