<svg width="359" height="467" viewBox="0 0 359 467" fill="none" xmlns="http://www.w3.org/2000/svg">
<path d="M248.533 154.242C242.978 146.559 237.133 144.095 234.215 143.943C232.848 143.658 229.725 142.619 228.171 140.739C228.027 141.238 228.171 142.576 229.898 143.943C232.057 145.651 226.012 143.302 224.933 142.021C225.365 142.946 226.53 144.925 227.739 145.438C226.444 145.722 223.292 146.121 221.047 145.438C221.767 145.865 223.379 146.762 224.07 146.933C220.76 148.285 213.622 151.46 211.549 153.34C210.542 153.696 208.441 154.664 208.095 155.689C207.664 156.97 210.038 159.533 203.778 160.814C197.518 162.096 197.086 163.164 196.654 164.445C196.309 165.47 196.942 167.008 197.302 167.648L197.734 168.716C197.158 168.859 195.964 169.272 195.791 169.784C195.618 170.297 196.295 171.991 196.654 172.774C195.863 173.13 194.194 174.055 193.848 174.91C193.416 175.978 194.496 176.191 192.769 177.259C191.042 178.327 189.315 179.395 189.315 181.317C189.315 183.239 190.61 186.015 193.201 187.724C195.791 189.432 199.677 192.636 199.029 194.344C194.424 194.344 184.652 193.789 182.407 191.568C180.162 189.347 176.003 186.798 174.204 185.802C171.902 185.161 166.174 183.709 161.684 183.025C157.194 182.342 153.337 181.601 151.97 181.317V183.025C143.911 178.825 127.102 170.169 124.339 169.143C121.576 168.118 114.553 161.313 111.387 158.038C104.695 154.265 87.4257 145.224 71.8833 139.244C69.7246 137.607 64.6733 133.563 61.7375 130.488C56.9021 125.533 52.5272 121.732 50.9442 120.451C46.483 115.538 37.3878 105.672 36.697 105.501C36.0062 105.33 36.4092 105.999 36.697 106.355C35.1859 104.504 31.9048 101.144 30.8686 102.511C29.8324 103.878 35.4738 111.196 38.4239 114.684C37.5605 114.969 36.0062 115.795 36.697 116.82C37.3878 117.845 43.173 124.223 45.9793 127.285C45.6195 128.281 45.5044 130.872 47.9221 133.264C50.9442 136.254 51.3759 136.041 52.2394 138.39C53.1029 140.739 56.3409 143.516 60.8741 142.875C64.5006 142.362 70.732 150.492 73.3944 154.621C79.6545 160.174 93.5132 171.962 98.8667 174.696C104.22 177.43 110.308 180.391 112.682 181.53C120.453 187.368 139.191 200.239 151.97 205.022L152.618 209.507C155.64 209.08 161.986 209.422 163.195 214.206C164.404 218.99 164.274 225.596 164.059 228.301C164.418 232.145 164.706 242.268 162.979 252.007C161.252 261.745 160.964 278.702 161.036 285.964C158.806 292.513 153.697 307.064 151.106 312.873C147.868 320.134 159.309 320.775 161.684 320.561C163.584 320.39 165.498 320.49 166.217 320.561V326.114H164.706L166.217 351.955C166.073 355.871 167.124 365.325 172.477 371.817L175.931 412.394C176.867 420.225 181.544 438.364 192.769 448.273C191.474 450.979 189.488 456.688 191.905 457.884C194.927 459.379 196.87 460.874 202.051 464.291C206.196 467.024 214.715 466.711 218.457 466.213C222.774 463.864 232.057 458.61 234.647 456.389C237.237 454.168 237.885 452.189 237.885 451.477C239.756 451.548 245.052 449.512 251.269 440.799L252.564 433.324L256.665 429.48L255.586 426.703C259.04 423.001 270.74 413.206 289.909 403.638L299.623 399.794C300.055 401.075 301.609 403.254 304.372 401.716C307.826 399.794 311.28 398.94 310.848 397.872C310.416 396.804 309.553 395.309 312.791 393.814C316.029 392.319 314.734 392.746 318.835 390.397L320.562 388.261C320.202 388.119 320.821 387.493 326.175 386.126C332.866 384.417 338.047 385.272 342.365 384.204C346.682 383.136 347.545 380.146 346.466 378.01C345.603 376.302 343.66 373.881 342.796 372.885C346.034 373.383 352.942 374.081 354.669 372.885C356.828 371.39 359.202 368.613 358.986 367.119V363.274C357.331 360.427 352.165 354.262 344.739 352.383C337.313 350.503 322.073 351.03 315.381 351.528C311.783 350.104 303.724 347.3 300.27 347.471C296.817 347.641 292.499 348.111 290.772 348.325L286.023 351.528C285.304 352.596 284.469 355.586 286.887 359.003C287.606 359.857 288.743 361.908 287.534 363.274C285.376 363.132 280.627 363.103 278.9 364.129C277.173 365.154 275.446 367.119 274.798 367.973C274.87 368.827 275.446 370.792 277.173 371.817C279.331 373.098 281.058 377.37 278.468 379.505L277.82 380.573L250.405 391.038C246.448 392.319 237.712 396.334 234.431 402.143L235.942 394.028L237.885 394.882C238.533 393.814 239.439 391.123 237.885 388.902C235.942 386.126 234.431 384.631 234.431 373.953C234.431 365.41 236.158 354.589 237.021 350.247C237.309 346.118 236.547 335.767 231.193 327.395C224.501 316.931 222.343 312.659 223.638 306.252C224.933 299.845 226.876 290.021 227.307 282.76C227.739 275.499 227.092 273.577 231.193 269.092C234.474 265.504 241.339 258.343 244.361 255.21C247.383 251.508 253.557 243.763 254.075 242.396C254.723 240.688 262.062 233.854 276.093 231.505L275.23 230.223C281.994 230.365 298.198 228.344 308.905 219.118C311.352 217.48 317.108 213.608 320.562 211.216C324.016 208.824 326.031 203.1 326.606 200.538C321.497 193.561 304.588 175.849 277.82 160.814C275.374 159.747 270.481 156.757 270.481 153.34V139.458V130.702L266.811 121.945C265.876 121.02 264.134 120.023 264.652 123.44C265.171 126.857 266.307 129.705 266.811 130.702L265.732 136.254V130.702L260.119 119.596C259.328 118.884 257.486 117.973 256.449 120.023C255.413 122.074 258.464 127.569 260.119 130.061L260.335 136.895L257.529 130.702L249.973 120.023C249.038 120.023 247.34 120.621 248.031 123.013C248.721 125.405 251.341 129.99 252.564 131.983L254.938 139.458C254.507 140.241 253.082 140.696 250.837 136.254C248.031 130.702 245.656 127.285 244.793 127.285C243.929 127.285 242.202 128.993 243.497 131.983C244.793 134.973 245.872 136.468 247.599 140.099C249.326 143.729 250.405 146.719 250.405 147.36C250.405 147.939 251.111 153.233 248.533 154.242Z" fill="#072744"/>
<ellipse cx="24.393" cy="24.1329" rx="24.393" ry="24.1329" transform="matrix(-1 0 0 1 48.7856 0)" fill="#072744"/>
</svg>
