<svg width="290" height="274" viewBox="0 0 290 274" fill="none" xmlns="http://www.w3.org/2000/svg">
<path d="M244.01 124.77C243.468 125.631 243.483 126.85 243.558 127.352L246.268 130.579C246.99 131.439 246.418 134.953 246.042 136.603C245.365 136.746 243.875 137.033 243.333 137.033C242.655 137.033 240.623 138.969 240.172 139.184C239.72 139.399 237.237 140.475 237.011 140.69C236.785 140.905 236.334 141.766 235.431 142.842C234.708 143.702 234.226 144.921 234.076 145.423C234.452 145.567 235.25 146.069 235.431 146.929C235.656 148.005 234.302 163.064 233.624 163.925C233.083 164.613 231.592 166.363 230.915 167.152L228.206 174.682C227.152 175.686 224.909 177.866 224.367 178.554C223.69 179.415 225.496 183.718 225.496 184.363C225.496 185.008 226.399 185.654 228.206 186.299C229.651 186.815 230.162 185.08 230.238 184.148C229.334 183.574 227.664 182.341 228.206 181.996C228.747 181.652 230.238 178.985 230.915 177.694C231.592 177.048 233.669 175.112 236.559 172.53C239.449 169.949 240.473 166.005 240.623 164.355L243.107 167.582C243.257 168.945 243.468 171.842 243.107 172.53C242.655 173.391 241.752 180.49 241.978 182.642C242.159 184.363 241.602 186.084 241.301 186.729C241.075 187.518 240.352 189.526 239.269 191.247C237.914 193.399 234.076 204.371 233.85 206.092C233.669 207.469 233.022 216.562 232.721 220.936L230.689 222.227C230.614 223.159 230.418 225.755 230.238 228.681C230.057 231.607 233.474 236.211 235.205 238.147C236.108 240.8 238.004 246.322 238.365 247.183C238.727 248.043 238.817 252.705 238.817 254.928L238.591 256.218L238.14 259.23L233.624 263.103C231.366 264.107 226.535 266.373 225.27 267.406C224.006 268.438 225.647 269.7 226.625 270.202C228.356 270.274 232.36 270.461 234.527 270.633C236.695 270.805 239.043 269.27 239.946 268.481C240.774 268.481 242.926 268.438 244.913 268.266C246.9 268.094 249.353 267.047 250.331 266.545L250.106 262.027L247.396 257.294L246.267 254.497C246.192 250.266 246.042 240.815 246.042 236.856C246.042 232.898 244.386 229.326 243.558 228.036C243.483 227.462 243.378 225.927 243.558 224.378C243.739 222.829 244.687 220.291 245.139 219.215L249.654 212.331C250.934 210.108 253.763 205.059 254.847 202.65C255.931 200.24 256.954 199.064 257.331 198.777C257.105 199.853 260.491 207.383 260.943 208.888C261.304 210.093 263.953 220.721 265.233 225.884C265.157 226.888 265.052 229.326 265.233 231.048C265.458 233.199 270.426 239.008 272.006 240.083C273.27 240.944 277.199 248.33 279.005 251.916V254.497L278.553 256.218L279.908 260.091L279.457 266.76C279.306 267.119 278.96 268.352 278.779 270.417C278.599 272.483 279.306 273.573 279.682 273.86C280.736 274.003 283.475 274.161 286.004 273.645C288.533 273.128 289.315 269.987 289.391 268.481L288.713 266.33L288.262 263.748L288.939 260.091V256.218L287.359 254.067C286.606 253.278 284.965 251.572 284.424 251.055C283.746 250.41 282.617 242.019 281.714 236.856C280.811 231.693 277.425 228.251 276.747 227.82C276.205 227.476 275.618 224.952 275.393 223.733V195.335C275.167 191.678 274.715 183.933 274.715 182.212C274.715 180.49 273.662 178.483 273.135 177.694C272.984 176.977 272.548 175.37 272.006 174.682C271.329 173.821 271.103 171.24 271.329 170.379C271.509 169.691 269.899 167.224 269.071 166.076C271.253 165.861 275.98 165.431 277.425 165.431C279.231 165.431 278.779 162.419 279.005 161.558C279.186 160.87 278.027 158.26 277.425 157.041L273.361 146.284C273.06 145.495 272.277 143.358 271.554 141.121C270.832 138.883 268.243 136.029 267.039 134.882C266.587 134.81 264.781 134.451 261.169 133.591C257.556 132.73 257.255 132.085 257.556 131.87C261.53 131.87 263.125 128.571 263.426 126.922C263.351 127.423 264.465 129.933 269.522 135.957C274.58 141.981 281.714 140.905 284.649 139.615C273.361 139.399 271.329 131.87 269.522 127.997C268.077 124.899 265.609 123.264 264.555 122.834C264.33 119.607 263.426 117.456 261.169 115.304C258.911 113.153 254.847 112.938 252.138 113.368C249.97 113.712 247.622 116.236 246.719 117.456C246.87 117.886 246.945 118.832 246.042 119.177C245.139 119.521 245.063 120.467 245.139 120.898L244.461 121.758C244.537 122.404 244.551 123.91 244.01 124.77Z" fill="#072744"/>
<path d="M190.501 97.4478V93.5754C190.501 93.1451 189.147 93.7905 189.598 91.8543C189.959 90.3053 190.05 89.0575 190.05 88.6272C190.2 87.1213 190.682 83.8942 191.404 83.0337C192.127 82.1731 191.404 81.8146 190.953 81.7429C191.254 80.6672 192.172 78.5588 193.436 78.731C195.017 78.9461 197.049 80.0218 197.726 79.8067C198.403 79.5915 200.887 76.3645 204.725 78.0856C208.109 79.6029 210.791 83.1265 213.389 83.7924C213.827 83.8475 214.179 83.88 214.433 83.8943C214.086 83.9198 213.738 83.8819 213.389 83.7924C211.629 83.5708 208.486 82.9834 204.725 81.7429C206.005 82.7469 208.518 85.2281 208.338 87.1213C208.112 89.4878 208.563 94.8661 203.145 97.4478C202.919 97.7347 202.919 98.6096 204.725 99.8144C206.531 101.019 207.886 102.324 208.338 102.826C208.714 103.113 209.557 103.687 209.918 103.687H213.53L214.885 104.547C215.111 103.83 215.291 102.267 214.208 101.751C213.124 101.234 213.756 100.245 214.208 99.8144H215.562L216.917 99.3841C217.519 99.5275 218.859 100.202 219.401 101.751C220.078 103.687 218.949 106.699 219.401 108.205C219.852 109.711 223.464 116.165 226.4 120.252C229.335 124.34 230.464 127.137 230.464 129.073V133.161C229.636 133.949 227.574 135.355 225.948 134.666C223.916 133.806 216.24 122.834 214.885 121.113C213.53 119.392 209.241 118.101 209.241 122.189C209.241 125.459 212.552 125.559 214.208 125.2C213.004 126.061 210.144 127.395 208.338 125.846C208.714 126.42 209.918 127.739 211.724 128.428C210.671 128.356 208.338 128.04 207.434 127.352L208.789 133.161L207.434 134.666L208.789 138.324L207.434 139.83L208.338 141.981C208.338 142.913 208.428 144.907 208.789 145.423C209.15 145.94 209.993 147.646 210.37 148.435L211.047 154.889L213.305 160.053L213.756 163.925C214.057 172.315 214.75 189.741 215.111 192.323C215.472 194.905 216.164 196.984 216.465 197.701C216.766 198.921 217.369 201.875 217.369 203.94C217.369 206.006 218.422 208.673 218.949 209.749C219.777 215.414 221.433 227.993 221.433 232.984V242.02L222.336 243.526L224.142 244.386L223.69 247.828C224.443 249.478 226.083 252.819 226.625 252.992C227.303 253.207 228.883 256.003 229.109 257.94L217.594 258.585V256.649C217.594 256.133 215.337 254.856 214.208 254.282C213.756 253.493 213.034 251.615 213.756 250.41C214.479 249.205 214.057 246.753 213.756 245.677L214.885 243.095V241.589C214.433 239.008 213.124 232.812 211.498 228.681C209.466 223.518 207.886 215.128 207.886 211.685C207.886 208.932 206.983 207.526 206.531 207.167L203.822 201.789C203.671 199.996 203.325 196.195 203.145 195.335C202.919 194.259 200.661 181.996 199.081 178.554C197.816 175.801 196.447 171.957 195.92 170.379C195.167 169.16 193.03 167.367 190.501 169.949C187.973 172.53 187.19 174.18 187.115 174.682L181.922 187.375L180.341 195.335C180.191 196.339 179.845 198.691 179.664 200.068C179.483 201.445 176.879 205.375 175.6 207.167L174.471 210.395C174.245 213.765 172.891 222.141 169.278 228.681C165.666 235.221 164.763 241.016 164.763 243.095L165.666 244.386V249.334L166.118 250.84V253.207C163.634 254.354 158.351 256.649 157.086 256.649H148.281L149.184 254.928V253.207C151.066 251.199 154.964 246.623 155.506 244.386C156.048 242.149 156.785 241.302 157.086 241.159H157.99L159.796 227.175C160.699 221.582 162.776 209.878 163.86 207.813C164.943 205.748 164.763 205.948 164.537 206.307L165.44 201.789L166.343 198.132L167.924 191.893C168.375 183.502 169.73 166.162 171.536 163.925C173.342 161.688 174.697 154.818 175.149 151.662C175.45 148.865 176.503 142.928 178.309 141.551C175.901 139.83 171.265 135.871 171.988 133.806C172.71 131.741 173.342 128.643 173.568 127.352L174.02 122.619C174.923 121.615 176.819 119.521 177.181 119.177C177.542 118.832 177.632 117.742 177.632 117.24V112.723V103.687C177.632 102.998 176.879 103.4 176.503 103.687L177.181 99.3841C176.202 94.7228 174.471 84.6687 175.374 81.7429C176.277 78.817 177.256 75.3605 177.632 73.998C180.718 68.9782 186.979 58.5082 187.34 56.7871C187.702 55.066 187.039 52.6278 186.663 51.6238L184.405 47.5362C184.405 46.9625 184.631 46.0733 185.534 47.106C186.437 48.1386 187.115 49.4008 187.34 49.9028C187.566 48.6836 187.882 45.8582 187.34 44.3092C186.663 42.373 186.889 41.7276 187.34 41.9427C187.702 42.1148 188.695 46.0303 189.147 47.9665C189.448 47.8231 190.005 47.1059 189.824 45.3849C189.643 43.6638 189.749 41.9427 189.824 41.2973C190.05 40.7953 190.592 40.0925 190.953 41.2973C191.314 42.502 191.404 46.2454 191.404 47.9665H191.856L192.759 43.0184C192.985 42.1578 193.527 40.7379 193.888 41.9427C194.249 43.1475 193.737 47.3211 193.436 49.2574C193.587 50.9067 194.385 53.7752 196.371 52.0541C198.358 50.333 199.307 50.6199 199.532 50.9785C198.93 51.6239 197.681 53.0438 197.5 53.5601C197.275 54.2055 195.017 56.3568 193.888 56.7871C192.759 57.2174 191.856 57.2174 188.695 65.1775C186.166 71.5455 183.577 76.8665 182.599 78.731C182.524 83.2489 182.735 92.4138 184.18 92.9301C185.625 93.4463 188.093 95.7268 189.147 96.8025L190.501 97.4478Z" fill="#072744"/>
<ellipse cx="130.303" cy="10.5417" rx="11.063" ry="10.5417" fill="#072744"/>
<path d="M88.7319 97.4833C88.1901 98.5159 87.1515 100.208 86.7 100.925C86.7 100.71 85.7971 98.1287 85.1198 97.4833C84.4425 96.8379 85.3456 96.6227 83.5394 93.1806C82.0944 90.4268 79.3249 90.0252 78.1208 90.1687C78.196 88.591 78.3466 85.1345 78.3466 83.9297C78.3466 82.4237 77.6692 74.2486 77.4435 72.5275C77.2177 70.8064 77.895 62.8463 78.3466 62.6312C78.7981 62.4161 79.927 59.6193 79.927 59.189C79.927 58.7587 80.3785 57.4679 81.5074 55.7468C82.4105 54.3699 82.4858 53.8823 82.4105 53.8106C81.8837 53.6672 80.5592 53.8536 79.4754 55.7468C78.3917 57.64 77.3682 55.8185 76.9919 54.6711C77.0672 52.5915 77.1725 48.217 76.9919 47.3565C76.8113 46.496 76.3146 46.8545 76.0888 47.1414C75.863 49.0776 75.3663 53.0791 75.1857 53.5955C75.0051 54.1118 74.5084 53.6672 74.2826 53.3803C74.4331 51.9461 74.5987 48.8194 74.0568 47.7868C73.515 46.7541 72.9279 47.3565 72.7022 47.7868V53.3803C72.1754 52.0178 70.9411 49.2927 70.2186 49.2927C69.4962 49.2927 69.6166 50.2967 69.7671 50.7987L71.5733 55.1014C70.896 54.5277 69.4962 53.2943 69.3155 52.9501C69.0898 52.5198 67.0578 52.7349 68.6382 53.8106C70.2186 54.8863 72.9279 59.8344 73.1537 62.2009C73.3343 64.0941 72.6269 69.5873 72.2506 72.0972C71.7991 75.3242 70.896 82.4237 70.896 85.0054V92.32C67.6448 95.418 68.1867 99.6347 68.864 101.356C67.8856 101.571 65.4773 102.991 63.6711 106.949C61.8649 110.908 65.6278 117.491 67.735 120.288V123.085L70.4443 135.562L71.5732 143.953C72.1753 144.957 73.2891 147.094 72.9279 147.61C72.5666 148.126 71.1217 153.562 70.4443 156.216V160.518L67.9608 165.466L66.1546 170.63V181.817H69.5412C69.5412 185.761 69.767 194.295 70.6701 196.876C71.5732 199.458 71.4979 205.123 71.3474 207.633C71.1217 208.781 70.354 211.936 69.0897 215.378C67.5092 219.681 70.6701 233.234 72.0248 237.967C73.1085 241.754 72.4763 245.282 72.0248 246.573C72.0247 246.358 71.5731 246.53 69.7669 248.939C67.9607 251.349 68.7133 253.242 69.3154 253.887C70.5195 255.25 73.0181 257.975 73.3793 257.975C73.7406 257.975 74.2824 261.417 74.5082 263.138C76.3144 265.003 80.9202 268.689 84.8939 268.517C88.8675 268.345 88.2052 265.863 87.3773 264.644L84.8939 260.126L80.8299 251.091V248.939C80.1526 246.86 78.7979 242.399 78.7979 241.194V230.438C78.7226 227.354 78.7527 220.929 79.4752 219.896L82.1845 216.023L82.636 216.669C82.2748 218.562 83.5391 222.908 84.2165 224.844L86.0227 238.613C86.3237 239.76 86.6548 242.184 85.5711 242.7C84.4874 243.217 81.6577 245.927 80.3783 247.218L83.0876 250.445L87.3773 254.963C90.3124 257.473 96.6341 262.794 98.4403 263.999C100.247 265.204 100.999 263.927 101.15 263.138L99.3434 257.975L98.4403 254.963C97.3114 252.382 94.7828 246.616 93.699 244.206C92.6153 241.797 94.1506 224.844 95.0537 216.669L97.0857 211.075V206.557L96.1826 200.319C96.905 196.532 97.8382 186.406 98.2145 181.817H99.3434L98.2145 172.351V166.972C97.8382 165.036 97.0857 161.035 97.0857 160.518C97.0857 160.002 97.8382 157.435 98.2145 156.216C98.2145 155.57 97.9888 154.107 97.0857 153.419C95.9568 152.558 95.5052 145.028 95.5052 143.307V134.702C95.3547 134.128 95.144 131.647 95.5052 126.312C95.8665 120.976 93.2475 118.495 91.8928 117.921C91.5918 117.634 90.9897 116.716 90.9897 115.34C90.9897 113.963 91.8928 110.32 92.3444 108.67L95.2795 100.065L98.2145 86.9416C98.2898 82.352 98.3952 73.0438 98.2145 72.5275C97.9888 71.8821 97.3114 62.8463 97.5372 61.7706C97.7178 60.9101 97.763 56.9659 97.763 55.1014C98.064 54.0974 98.7112 51.8313 98.8919 50.7987C99.0725 49.766 98.2145 50.0816 97.763 50.3684C97.5372 51.1572 96.9954 52.95 96.6341 53.8106C96.2729 54.6712 95.731 54.5994 95.5052 54.456C95.5805 52.5198 95.6407 48.4752 95.2795 47.7868C94.9182 47.0983 94.3764 47.3565 94.1506 47.5716V50.1533C94.1506 52.3907 93.699 53.2369 93.4733 53.3803C93.2475 51.731 92.7056 48.1741 92.3444 47.1414C91.9831 46.1087 91.4413 46.5677 91.2155 46.9263L91.4413 52.9501C90.8392 51.731 89.4093 49.1636 88.5062 48.6473C87.6031 48.131 87.5278 48.8624 87.6031 49.2927L89.4093 52.7349C89.7103 53.3803 90.4027 54.9723 90.7639 56.1771C91.1252 57.3818 90.3124 58.1133 89.8608 58.3284C89.334 57.9699 88.0546 57.2097 87.1515 57.0376C86.2484 56.8655 86.4742 57.5396 86.7 57.8982C87.7536 58.5436 90.2221 60.1786 91.667 61.5555C93.4732 63.2766 93.0217 66.9339 92.7959 69.7307C92.6153 71.9681 91.9681 82.5672 91.667 87.587C90.9144 90.4555 89.2738 96.4506 88.7319 97.4833Z" fill="#072744"/>
<path d="M29.8048 73.1729C30.6327 70.7347 32.6947 64.7826 34.3203 60.4798C35.9459 56.1771 39.3626 44.9183 40.8678 39.8267C41.3946 38.8228 42.4934 36.2985 42.674 34.2332C42.8546 32.1679 43.2008 30.791 43.3513 30.3607C43.3513 28.1376 43.261 23.5194 42.8998 22.8309C42.4482 21.9704 43.3513 22.1855 43.5771 22.6158C43.7577 22.96 44.405 23.9066 44.706 24.3369C44.6307 23.3329 44.4351 21.282 44.2544 21.1099C44.0287 20.8947 45.3833 20.0342 45.6091 21.325C45.6451 21.5307 45.6697 21.6886 45.6855 21.8078C45.7807 21.656 45.9249 21.5824 46.0606 21.9704C46.2413 22.4867 46.5875 26.6317 46.738 28.6396C47.1895 27.7074 48.1378 25.5847 48.3184 24.552C48.5442 23.2612 48.77 21.9704 49.2215 22.1855C49.6731 22.4007 49.4473 24.1217 49.4473 24.7672C49.4473 25.2835 48.5442 28.1376 48.0926 29.5002C47.7916 30.3607 47.4605 32.2539 48.5442 32.9423C49.8988 33.8029 52.1566 32.2969 52.3824 32.0818C52.6081 31.8667 53.2855 31.6515 54.1886 32.5121C53.2102 32.9423 51.1632 34.1041 50.8019 35.3088C50.4407 36.5136 47.6411 38.6793 46.2864 39.6116C45.7596 40.4004 44.706 42.4514 44.706 44.3446C44.706 46.7111 43.3513 58.9738 42.4482 60.4798C41.7258 61.6846 41.0936 64.9977 40.8678 66.5036C39.5884 70.4478 36.8039 78.5943 35.9008 79.6269C34.9977 80.6596 36.1265 81.348 36.8039 81.5632C37.0296 82.1369 37.1651 83.4134 35.9008 83.9297C35.5997 84.5034 35.1331 85.7799 35.675 86.2962C36.5028 84.8619 38.3391 81.9504 39.0616 81.7783C39.9647 81.5632 42.674 76.615 43.5771 73.6031C44.2996 71.1936 47.039 62.2726 48.3184 58.1133L55.3174 40.9024C55.6937 39.6116 56.2206 36.6857 55.3174 35.3088C54.4143 33.932 54.7151 33.9616 53.7717 33.0537C53.9491 32.6221 54.6853 31.9097 55.769 32.9423C55.9948 30.5758 56.2206 25.5847 55.3174 24.552C54.4143 23.5194 55.2422 23.548 55.769 23.6915C56.2206 24.3369 57.1237 26.101 57.1237 27.9942C57.2742 26.7751 57.53 24.1648 57.3494 23.4763C57.1237 22.6158 57.5752 22.4007 57.801 22.6158C57.9816 22.7879 58.3278 23.8349 58.4783 24.3369C58.7041 24.1935 59.2008 24.0357 59.3814 24.552C59.562 25.0683 59.7577 28.0659 59.833 29.5002C59.9082 30.9344 60.42 33.4587 61.8649 32.0818C63.6711 30.3607 63.8969 29.0699 63.8969 28.8547C63.8969 28.6396 64.8 28.2093 64.8 29.5002C64.8 30.5328 63.2949 32.6555 62.5423 33.5877C62.3165 34.1614 61.8649 35.524 61.8649 36.3845C61.8649 37.4602 61.4134 40.6873 59.833 41.5478C58.5686 42.2362 58.2525 48.0019 58.2525 50.7987C57.1989 53.7389 55.0465 60.0065 54.8659 61.5555C54.6401 63.4917 52.8339 66.2885 52.6081 73.6031C52.4275 79.4548 48.3184 87.5153 46.2864 90.814C45.8349 92.1049 45.0221 95.2028 45.3833 97.2681C45.7446 99.3334 46.738 102.862 47.1895 104.368L46.738 111.467C46.5875 113.762 46.3767 118.438 46.738 118.782C47.0992 119.126 48.0926 123.945 48.5442 126.312C46.5875 129.395 42.5837 135.562 42.2225 135.562C41.7709 135.562 39.2874 137.929 39.5132 140.295C39.6938 142.189 39.5884 148.112 39.5132 150.837C39.9647 152.343 40.8678 155.527 40.8678 156.216V164.391V167.618C40.7173 173.57 40.326 185.947 39.9647 187.841L40.8678 190.637L41.3194 195.37V199.458C40.7926 201.322 39.6035 205.181 39.0616 205.697C38.3843 206.342 38.3843 208.494 38.6101 208.924C38.7907 209.268 39.2874 217.673 39.5132 221.832L41.0936 237.322L43.1256 237.967V240.119L43.8029 247.003V250.876L47.6411 255.393C47.6411 256.684 46.9186 259.051 44.0287 258.19C41.1387 257.33 34.2451 250.947 31.1595 247.864H30.2564L23.9347 241.84C24.1604 241.41 24.9732 240.334 26.4182 239.473C26.7945 238.971 27.9083 237.752 29.3533 236.892C30.7982 236.031 30.8584 235.099 30.7079 234.74C30.5574 231.657 29.9403 224.758 28.6759 221.832C27.0955 218.175 24.3862 212.151 25.5151 207.418C26.644 202.685 26.1924 201.179 26.4182 200.318C26.644 199.458 27.3213 196.016 26.4182 193.649C25.5151 191.283 25.2893 185.904 25.0635 185.044C24.8829 184.355 22.58 177.442 21.4511 174.072L18.2903 186.98C17.8387 190.135 15.9874 197.307 12.1943 200.749C11.8933 202.613 11.3364 206.773 11.517 208.494C11.7428 210.645 9.25925 226.565 10.1623 228.717C10.8848 230.438 11.3665 230.007 11.517 229.577L12.8718 233.88L16.7099 238.182L20.0966 240.979L21.4512 242.7V244.852L15.5811 246.573C13.6996 246.86 9.62059 247.347 8.35625 247.003C7.09191 246.659 6.17375 245.425 5.87272 244.852L4.29229 245.282L0.679883 243.991C0.529366 242.485 0.408953 239.215 1.13143 238.182C1.85392 237.15 2.48611 234.31 2.71189 233.019C2.78713 228.86 2.57637 219.896 1.13143 217.314C-0.313504 214.733 -0.0726709 204.908 0.228363 200.318L3.38928 190.637L4.06661 185.044C4.89445 180.885 6.41467 172.222 5.87281 170.845C5.33095 169.468 5.64703 162.526 5.87281 159.227L0.679972 157.937L0.00264581 156L5.42126 149.116C5.79755 147.753 6.55014 144.899 6.55014 144.383C6.55014 143.738 9.25944 140.726 9.93677 139.865C10.4786 139.177 11.3667 138.001 11.743 137.499C12.1945 135.993 13.3686 132.637 14.4523 131.26C15.8069 129.539 16.9358 126.957 16.9358 126.742C16.9358 126.57 17.5379 124.519 17.8389 123.515V111.897V104.583L17.3874 99.4195L18.742 94.0411L18.9678 92.1049C17.8389 91.3877 15.3554 88.9639 14.4523 85.0054C11.2914 85.0771 5.3761 86.4253 7.00169 91.2443C8.62727 96.0634 14.1512 97.6984 16.71 97.9135C14.2265 98.6307 8.44665 99.2474 5.19548 95.9773C2.54478 93.3112 1.81509 91.1942 1.81609 89.7458C1.48987 91.2991 1.28547 93.1716 1.67637 94.3884C1.86338 94.7477 2.06389 95.0658 2.2604 95.3319C1.9924 95.1085 1.8031 94.7829 1.67637 94.3884C0.502627 92.1334 -0.139933 88.2563 4.06661 85.4356C3.31402 85.3639 1.62823 85.4356 0.905748 86.2962C1.3573 85.6508 3.07319 84.2739 6.32436 83.9297L4.74393 83.2843C6.92643 82.9974 11.472 82.4667 12.1945 82.6389C12.917 82.811 13.8502 82.2803 14.2265 81.9934C13.6244 79.2684 13.5943 73.474 18.2905 72.0972C24.1606 70.3761 27.5469 71.4518 29.8048 73.1729Z" fill="#072744"/>
</svg>
