<svg width="356" height="449" viewBox="0 0 356 449" fill="none" xmlns="http://www.w3.org/2000/svg">
<ellipse cx="20.9649" cy="21.9123" rx="20.9649" ry="21.9123" transform="matrix(0.999905 0.0137718 -0.0127276 0.999919 187.082 0)" fill="#072744"/>
<path d="M255.227 114.084C256.49 107.335 260.787 101.09 262.777 98.8104C263.758 98.824 266.536 98.2473 269.804 95.832C273.072 93.4166 273.653 92.0406 273.535 91.6545C272.926 91.3898 272.079 90.481 273.569 88.9637C275.433 87.0672 273.613 85.5042 272.887 84.7252C272.162 83.9462 272.912 82.8032 271.823 81.6348C270.952 80.7 269.008 81.2114 268.145 81.5839C268.165 80.0463 267.428 80.1643 267.057 80.4154C266.316 80.7896 264.618 81.3044 263.747 80.3696C262.658 79.2012 261.148 82.256 258.535 85.2955C256.444 87.7271 255.385 91.916 255.118 93.7064C250.641 98.6425 235.217 125.726 231.466 131.441C228.465 136.013 233.077 139.793 235.757 141.112C240.685 147.024 248.504 151.156 251.798 152.483L254.168 168.664C254.113 173.02 254.416 183.892 256.073 192.527C257.729 201.161 255.984 218.925 254.904 226.728C254.765 228.007 253.66 232.016 250.349 237.814C247.039 243.612 233.212 264.617 226.712 274.395L229.949 280.207C228.776 285.701 226.203 297.148 225.297 298.981C224.391 300.814 220.167 307.112 218.169 310.032C207.468 318.496 202.152 335.441 200.832 342.856C200.806 344.906 200.229 349.845 198.126 353.199C196.024 356.553 194.459 361.991 193.94 364.291C193.314 365.307 191.834 367.875 190.925 370.016C189.787 372.691 184.909 380.313 183.404 382.983C181.898 385.654 181.07 392.947 184.709 396.073C187.62 398.574 190.606 395.13 191.736 393.095C193.467 391.965 197.233 388.865 198.453 385.498C199.978 381.29 206.763 368.313 211.244 362.992C214.83 358.736 211.348 354.792 209.16 353.352C210.55 350.039 214.665 342.663 220 339.661C225.335 336.659 229.725 326.98 231.252 322.516C235.709 319.118 240.946 312.27 241.706 310.358C242.314 308.828 248.957 299.309 252.203 294.74C257.166 297.885 262.885 293.606 265.124 291.074L277.876 271.643C283.277 263.414 287.024 265.747 288.222 267.942L300.41 293.101L306.653 293.956C309.504 301.172 315.636 316.533 317.354 320.247C319.503 324.891 327.623 322.696 329.462 322.722C330.933 322.742 332.791 321.23 333.536 320.471C333.886 321.886 335.242 325.185 337.867 327.067C341.148 329.419 339.681 329.015 342.58 332.515C344.898 335.315 346.995 332.448 347.753 330.664C349.506 331.611 350.219 329.545 350.356 328.393C349.994 328.004 350.734 327.63 351.866 325.339C352.617 324.196 352.267 322.781 351.557 320.721C353.04 319.819 350.52 315.452 349.075 313.382C347.266 311.05 343.355 306.151 342.19 305.213C341.025 304.274 339.759 303.513 339.272 303.25L329.88 289.664L329.968 282.745C332.209 280.084 332.674 272.402 331.232 270.075C329.79 267.748 308.966 227.476 309.382 223.637C309.716 220.566 308.857 216.709 308.386 215.165C307.433 212.973 305.327 206.972 304.526 200.502C303.525 192.414 310.354 175.977 315.213 169.893C319.1 165.025 322.899 153.595 324.312 148.489C332.147 139.755 343.762 122.999 348.612 117.684C352.491 113.431 353.51 108.524 353.534 106.602C353.316 104.421 352.818 99.2107 352.567 95.8239C352.316 92.4372 348.198 82.5636 346.171 78.0501C344.265 73.6665 340.539 63.824 340.888 59.5228C341.237 55.2217 340.15 50.0292 339.563 47.9706C339.462 46.3032 339.345 41.97 339.69 37.9763C340.121 32.9842 337.164 34.0967 337.15 35.2499C337.138 36.1725 336.573 42.0341 336.292 44.8496L335.267 38.684C334.802 36.6271 333.73 32.2038 333.158 30.9656C332.442 29.4178 330.588 30.5456 331.957 38.6382C333.052 45.1124 332.361 45.436 331.879 44.7886C330.8 42.8513 328.505 38.206 327.955 35.1227C327.268 31.2686 326.538 30.874 325.792 31.6326C325.047 32.3912 326.44 38.5619 327.858 42.8106C328.992 46.2096 327.324 46.2634 326.348 45.8654L323.469 40.8275C322.876 39.2815 321.541 36.2642 320.948 36.5636C320.208 36.9378 321.243 42.3346 323.406 45.8247C325.136 48.6168 324.813 50.8422 324.436 51.6059C323.583 51.2096 321.365 50.1024 319.321 48.8439C317.277 47.5853 316.495 49.3174 316.36 50.3407C317.939 51.516 321.971 54.5706 325.466 57.3871C329.836 60.9077 332.656 70.5583 332.641 71.7115C332.627 72.8647 335.316 92.894 337.827 97.9267C339.836 101.953 338.576 106.523 337.695 108.305C332.109 107.921 324.957 116.972 322.079 121.545C312.064 122.33 306.736 132.483 305.324 137.461L297.616 136.201C297.661 132.613 298.859 125.146 303.288 123.977C307.717 122.808 308.124 119.686 307.775 118.272C308.409 116.615 309.473 111.99 308.656 106.75C307.636 100.2 302.178 95.5111 298.161 93.1487C294.145 90.7863 289.301 95.7173 287.81 97.2345C286.32 98.7518 284.81 101.807 284.074 101.796C283.486 101.788 281.835 104.328 281.083 105.6L281.044 108.675C280.296 109.69 278.645 112.256 278.029 114.4C277.259 117.081 280.167 119.812 280.854 123.666C281.541 127.52 279.276 132.103 278.511 134.399C277.9 136.236 274.075 136.132 272.24 135.85C270.517 132.443 266.17 131.024 264.212 130.741C261.996 131.479 257.345 132.722 256.474 131.787C255.603 130.852 252.453 129.809 250.987 129.404C251.874 127.11 253.965 120.834 255.227 114.084Z" fill="#072744"/>
<path d="M122.692 204.796L128.944 204.883C130.733 199.141 135.648 186.675 140.995 182.751C147.678 177.845 152.586 167.917 153.017 162.925C153.448 157.933 158.424 142.623 165.185 131.568C170.594 122.723 170.814 113.063 170.248 109.339C169.931 105.362 168.566 96.9359 165.647 95.0501C161.999 92.6928 163.921 86.1835 170.394 97.807C175.573 107.106 178.112 88.6867 178.734 78.3148C179.85 77.305 181.838 77.1275 180.862 84.4957C180.051 90.6188 179.75 92.5716 179.673 92.9097C180.189 92.2441 181.547 90.148 183.04 86.8326C184.932 82.6297 187.565 78.0525 188.291 78.8315C189.017 79.6105 188.218 84.5975 187.468 85.7405C186.867 86.6549 185.188 91.4759 184.423 93.772C184.407 95.0534 184.975 96.7016 187.375 93.044C190.376 88.4719 192.646 83.5053 193.734 84.6738C194.605 85.6086 192.826 88.634 191.827 90.0299L188.067 96.5137C188.059 97.1544 188.639 97.8288 191.024 95.4012C194.005 92.3668 195.863 90.8547 195.844 92.3922C195.828 93.6223 192.091 98.2354 190.225 100.388C189.476 101.403 187.975 103.74 187.96 104.97C187.94 106.508 182.699 113.74 180.463 116.016C178.674 117.837 175.506 139.528 174.145 150.146C172.003 154.73 167.411 164.893 166.184 168.874C164.956 172.856 163.845 179.222 163.444 181.908C160.027 190.319 152.961 207.983 152.036 211.354C150.879 215.567 152.503 232.506 150.199 240.163C147.895 247.821 149.089 269.752 146.726 282.022C144.364 294.292 143.565 299.279 143.531 301.969C143.497 304.66 141.366 327.699 138.704 334.582C136.042 341.465 127.386 385.943 118.36 401.581C109.334 417.22 112.841 430.724 110.944 435.312C109.426 438.981 107.523 443.979 106.762 446.019C105.997 448.315 104.086 453.978 102.561 458.263C100.653 463.619 81.5587 461.048 81.5635 460.664C81.5684 460.28 81.4538 440.286 85.9353 434.965C90.4167 429.645 92.6185 430.06 95.0637 411.255C97.0199 396.211 99.006 390.421 99.7545 389.406C100.423 375.318 102.745 345.003 106.679 336.446C106.451 335.033 105.315 333.735 102.589 339.849C99.1819 347.491 88.3316 361.951 85.7182 364.99C83.6275 367.422 83.4524 379.312 83.6262 384.953C82.1177 387.88 78.7853 395.421 77.5227 402.17C76.2601 408.919 77.3312 417.289 78.0245 420.631C78.1739 428.194 78.312 444.395 77.669 448.692C77.026 452.989 76.8101 458.42 76.7825 460.598L58.7569 460.733C59.0589 456.252 59.8952 446.37 60.8246 442.692C61.754 439.014 62.5319 433.745 62.8047 431.57L64.8091 418.526C64.7271 415.321 63.9283 406.749 61.3895 398.102C58.8506 389.455 64.5596 370.464 67.7315 362.05C67.7542 360.256 68.4008 355.677 70.8052 351.712C73.8106 346.756 68.0188 339.371 73.3137 327.91C77.5496 318.742 81.9258 306.243 83.5844 301.14C84.4782 298.333 87.3102 291.58 91.4877 287.024C95.6652 282.468 96.7875 275.179 96.8264 272.104L88.2239 254.3C83.4778 261.154 72.348 276.379 65.7973 282.439C58.7042 290.671 42.8077 308.572 35.9667 314.322C34.4777 315.711 31.4137 319.487 31.0688 323.481C30.7239 327.475 23.4885 331.45 19.9139 332.938C19.5235 334.727 19.175 339.002 20.9053 341.794C23.0681 345.285 19.7631 344.854 18.6987 341.764C17.8472 339.292 16.6829 336.354 16.2071 335.194C14.9487 337.739 12.2761 343.52 11.6526 346.28C10.8733 349.729 8.67639 348.93 9.06851 347.013C9.38221 345.48 9.97367 343.309 10.2302 342.416C9.35744 343.557 7.53451 346.146 7.22472 347.372C6.91492 348.598 6.83422 349.161 6.8326 349.289C5.72279 349.786 3.95912 349.634 5.78285 345.045C7.60658 340.457 8.56581 338.292 8.81746 337.783L8.84668 335.476C7.23191 337.12 3.7062 340.557 2.52154 341.156C1.04072 341.904 1.43771 339.603 2.18786 338.46C2.93801 337.317 10.7781 328.198 11.1507 327.819C11.5233 327.439 17.1081 322.134 18.5889 321.386C19.7735 320.787 22.8154 316.831 24.1882 314.927L42.6083 283.656C44.7361 280.226 50.3981 272.692 56.0233 270.001C58.4223 264.524 63.8147 253.116 66.1918 251.303C66.9955 245.932 69.4217 234.432 72.697 231.401C75.9723 228.371 80.9917 225.108 83.092 223.856L101.685 207.966C102.334 205.155 102.466 198.596 97.8051 194.84C91.9792 190.146 92.3567 189.383 92.0279 186.302C91.6991 183.222 87.0836 170.086 98.1849 164.858C107.066 160.675 113.409 163.274 115.47 165.097C117.53 167.048 122.078 171.955 123.792 175.977C123.405 177.509 123.141 180.966 125.181 182.532C127.221 184.098 126.878 193.705 126.452 198.313C125.955 198.818 124.522 199.67 122.765 199.031C121.007 198.391 121.984 202.608 122.692 204.796Z" fill="#072744"/>
</svg>
